<?xml version="1.0" encoding="utf-8"?>
<!-- Generator: Adobe Illustrator 26.0.0, SVG Export Plug-In . SVG Version: 6.00 Build 0)  -->
<svg version="1.1" id="Capa_1" xmlns="http://www.w3.org/2000/svg" xmlns:xlink="http://www.w3.org/1999/xlink" x="0px" y="0px"
	 viewBox="0 0 16 19.83" style="enable-background:new 0 0 16 19.83;" xml:space="preserve">
<style type="text/css">
	.st0{fill:#BFE4F5;}
	.st1{fill:#9ED8F2;}
	.st2{fill:#6EC9F0;}
	.st3{fill:#D5EDF9;}
	.st4{fill:#CDE9F7;}
	.st5{fill:#FFFFFF;}
</style>
<g>
	<path class="st0" d="M14.99,11.63c-0.86,1.03-1.97,1.54-3.31,1.55c-0.13,0.08-0.28,0.05-0.42,0.04c-1.51-0.18-2.66-0.94-3.4-2.26
		c-0.43-0.77-0.6-1.61-0.51-2.51C7.45,7.52,7.75,6.64,8.15,5.8c0.07-0.14,0.12-0.29,0.2-0.42c0.04-0.06,0.06-0.13,0.13-0.15
		c0.41-0.76,0.88-1.48,1.39-2.18c0.44-0.6,0.92-1.16,1.4-1.73c0.08-0.09,0.18-0.15,0.28-0.23c0.09,0,0.18,0,0.28,0
		c0.28,0.17,0.47,0.43,0.66,0.69c-0.13,0.27-0.32,0.5-0.48,0.75C11.47,3.35,11,4.2,10.65,5.11c-0.31,0.83-0.5,1.68-0.44,2.58
		c0.06,0.79,0.32,1.51,0.79,2.15c0.45,0.62,1.02,1.08,1.72,1.4c0.06,0.03,0.15,0.04,0.14,0.13c-0.01,0.08-0.09,0.1-0.15,0.12
		c-0.28,0.1-0.56,0.17-0.85,0.19c-0.06,0-0.13,0-0.19,0.02c-0.15,0.04-0.24,0.14-0.24,0.28c0,0.14,0.11,0.25,0.27,0.26
		c0.15,0.01,0.3-0.02,0.44-0.03c0.52-0.07,1-0.25,1.43-0.55c0.08-0.05,0.16-0.1,0.25-0.08c0.32,0.05,0.64,0.02,0.96,0.03
		C14.86,11.59,14.94,11.58,14.99,11.63z"/>
	<path class="st1" d="M11.61,13.8c-0.06,0.45-0.18,0.88-0.36,1.3c-0.31,0.75-0.75,1.41-1.34,1.97c-0.02,0.02-0.04,0.03-0.05,0.04
		c-0.14,0.09-0.3,0.09-0.45,0.1c-0.35,0.02-0.71,0.06-1.06-0.03c-0.09-0.06-0.03-0.1,0.02-0.14c0.16-0.11,0.32-0.22,0.48-0.34
		c0.72-0.56,1.22-1.27,1.55-2.11c0.02-0.05,0.04-0.11,0.04-0.17c0-0.11-0.05-0.2-0.16-0.24c-0.11-0.05-0.2-0.01-0.28,0.07
		c-0.05,0.05-0.08,0.12-0.11,0.19c-0.47,1.15-1.28,1.98-2.43,2.46c-0.01,0-0.02,0.01-0.03,0.03c0.2,0.05,0.4,0.1,0.6,0.13
		c0.09,0.01,0.2,0.01,0.27,0.08c0,0.05-0.04,0.06-0.08,0.08c-0.4,0.21-0.81,0.38-1.25,0.48c-0.07,0.02-0.15,0.03-0.22,0.03
		c-0.16-0.01-0.29-0.11-0.32-0.24c-0.04-0.17,0.04-0.33,0.19-0.4c0.15-0.07,0.32-0.09,0.49-0.15c-0.77-0.25-1.46-0.63-2.06-1.16
		c-0.88-0.76-1.48-1.7-1.8-2.81c-0.17-0.58-0.25-1.18-0.23-1.78c0.03-0.77,0.17-1.52,0.4-2.26c0.45-1.42,1.15-2.72,1.95-3.97
		C5.8,4.31,6.25,3.68,6.72,3.06c0.47,0.55,0.94,1.1,1.38,1.68c-0.45,0.79-0.81,1.62-1.05,2.5C6.91,7.76,6.81,8.28,6.81,8.81
		c0,1.04,0.27,2.01,0.89,2.86c0.82,1.14,1.92,1.82,3.31,2.04c0.15,0.02,0.31,0.02,0.46,0.05C11.51,13.77,11.57,13.76,11.61,13.8z"/>
	<path class="st2" d="M8.31,17.14c0.47,0.06,0.94,0.06,1.41-0.03c0.04-0.01,0.09,0,0.14-0.01c-0.39,0.41-0.85,0.71-1.34,0.97
		C8,18.35,7.46,18.53,6.88,18.63c-1.42,0.25-2.76,0.02-4-0.71c-1.28-0.76-2.15-1.86-2.61-3.27c-0.26-0.8-0.32-1.62-0.23-2.46
		c0.15-1.49,0.71-2.84,1.4-4.15c0.63-1.2,1.39-2.32,2.22-3.39C4.23,3.91,4.83,3.2,5.46,2.51c0.25-0.27,0.51-0.27,0.77,0
		C6.4,2.69,6.56,2.88,6.72,3.06c0.01,0.09-0.05,0.15-0.1,0.21C5.9,4.22,5.24,5.21,4.66,6.25c-0.43,0.77-0.8,1.56-1.08,2.39
		c-0.21,0.62-0.38,1.24-0.44,1.9c-0.03,0.3-0.07,0.6-0.06,0.9c0.05,1.28,0.43,2.44,1.22,3.47c0.51,0.66,1.13,1.18,1.85,1.58
		c0.31,0.17,0.64,0.3,0.98,0.42c0.03,0.01,0.06,0.03,0.1,0.04c-0.16,0.08-0.33,0.1-0.48,0.15c-0.22,0.07-0.31,0.22-0.26,0.41
		c0.04,0.14,0.22,0.22,0.42,0.17c0.38-0.09,0.75-0.21,1.1-0.39C8.1,17.24,8.21,17.19,8.31,17.14L8.31,17.14z"/>
	<path class="st3" d="M14.99,11.63c-0.39-0.02-0.78,0.03-1.17-0.03c-0.07-0.01-0.13,0.01-0.19,0.06c-0.5,0.35-1.05,0.57-1.67,0.6
		c-0.12,0.01-0.23,0.05-0.35,0.01c-0.15-0.05-0.23-0.16-0.23-0.3c0-0.14,0.07-0.26,0.23-0.3c0.23-0.05,0.47-0.03,0.69-0.1
		c0.15-0.05,0.31-0.08,0.46-0.14c0.03-0.01,0.07-0.02,0.07-0.06c0-0.04-0.04-0.05-0.07-0.06c-0.99-0.43-1.72-1.13-2.19-2.1
		c-0.26-0.54-0.39-1.11-0.41-1.72c-0.03-0.95,0.23-1.84,0.58-2.71c0.42-1.04,1.02-1.98,1.65-2.91c0.02-0.03,0.06-0.05,0.09-0.08
		c0.27,0.26,0.49,0.56,0.71,0.85c0.53,0.7,1.04,1.42,1.48,2.18c0.53,0.93,0.97,1.89,1.2,2.94c0.11,0.5,0.16,1.01,0.11,1.52
		c-0.07,0.68-0.27,1.32-0.65,1.89C15.23,11.33,15.13,11.49,14.99,11.63z"/>
	<path class="st2" d="M11.61,13.8c-0.89-0.02-1.71-0.26-2.47-0.72c-0.61-0.37-1.12-0.85-1.52-1.44c-0.42-0.62-0.69-1.31-0.79-2.06
		c-0.17-1.24,0.13-2.4,0.59-3.53c0.15-0.38,0.34-0.74,0.52-1.1C7.97,4.87,8,4.78,8.1,4.75c0.13,0.16,0.25,0.32,0.38,0.48
		C8.05,6.03,7.7,6.86,7.51,7.75c-0.22,1.02-0.17,2.01,0.28,2.96c0.52,1.07,1.33,1.82,2.45,2.23c0.46,0.17,0.94,0.26,1.44,0.25
		C11.68,13.39,11.65,13.6,11.61,13.8z"/>
	<path class="st4" d="M8.31,17.14c-0.33-0.02-0.65-0.1-0.97-0.19c0.01-0.07,0.07-0.07,0.11-0.09c0.79-0.32,1.42-0.83,1.92-1.52
		c0.21-0.29,0.38-0.61,0.51-0.95c0.1-0.26,0.27-0.34,0.47-0.23c0.14,0.08,0.19,0.24,0.12,0.42c-0.35,0.85-0.84,1.59-1.58,2.16
		C8.7,16.88,8.5,17,8.31,17.14C8.31,17.14,8.31,17.14,8.31,17.14z"/>
	<path class="st1" d="M5,17.11c0.17,0.03,0.39,0.05,0.6,0.09c0.18,0.04,0.26,0.19,0.23,0.36c-0.03,0.13-0.21,0.25-0.36,0.23
		c-0.17-0.02-0.34-0.04-0.51-0.07c-0.28-0.04-0.4-0.21-0.31-0.45C4.71,17.13,4.82,17.11,5,17.11z"/>
	<path class="st5" d="M12.94,11.36c0.4-0.23,0.73-0.5,0.99-0.85c0.3-0.42,0.48-0.88,0.51-1.4c0.01-0.15-0.02-0.31,0.11-0.43
		c0.09-0.08,0.19-0.13,0.31-0.07c0.12,0.05,0.19,0.13,0.19,0.27c0.01,0.85-0.27,1.59-0.83,2.23c-0.12,0.14-0.27,0.26-0.4,0.4
		c-0.05,0.06-0.12,0.08-0.19,0.06C13.42,11.52,13.19,11.47,12.94,11.36z"/>
</g>
</svg>
