<?xml version="1.0" encoding="utf-8"?>
<!-- Generator: Adobe Illustrator 26.0.0, SVG Export Plug-In . SVG Version: 6.00 Build 0)  -->
<svg version="1.1" id="Capa_1" xmlns="http://www.w3.org/2000/svg" xmlns:xlink="http://www.w3.org/1999/xlink" x="0px" y="0px"
	 viewBox="0 0 24 24" style="enable-background:new 0 0 24 24;" xml:space="preserve">
<style type="text/css">
	.st0{fill:#FFFFFF;}
	.st1{fill:#FDC62A;}
	.st2{fill:#EB5D2C;}
	.st3{fill:#999999;}
	.st4{fill:#464A4C;}
	.st5{fill:#BE4C46;}
	.st6{fill:#BF4D47;}
	.st7{fill:#C0534C;}
	.st8{fill:#AF3B38;}
	.st9{fill:#A1312E;}
	.st10{fill:#7DCDEB;}
</style>
<g>
	<path class="st1" d="M7.59,9.08L7.58,9.07l-0.01,0c-0.25,0-0.49-0.06-0.74-0.09C6.8,8.97,6.76,8.97,6.73,8.94
		c0.02-0.15,0.13-0.25,0.2-0.37c0.37-0.6,0.79-1.18,1.25-1.72c0.86-1.04,1.85-1.94,3.07-2.55c0.78-0.39,1.6-0.62,2.47-0.63
		c0.28,0,0.57,0.01,0.84,0.08c0.03,0.01,0.07,0.01,0.1,0.01c0.16,0.02,0.28,0.11,0.41,0.19c0.62,0.45,1.08,1.04,1.43,1.72
		c0.33,0.64,0.53,1.32,0.64,2.04c0.17,1.11,0.13,2.22-0.04,3.32c-0.06,0.42-0.15,0.83-0.24,1.24c-0.06,0.28-0.14,0.56-0.22,0.83
		c-0.01,0.06-0.02,0.12-0.08,0.15c-0.01,0-0.03,0-0.04,0c-0.09-0.05-0.18-0.1-0.23-0.2l0,0c-0.25-0.19-0.49-0.39-0.75-0.56
		c-0.03-0.02-0.06-0.05-0.07-0.09l-0.01-0.01l-0.01,0c-0.2-0.11-0.39-0.24-0.56-0.38c-0.06-0.05-0.13-0.07-0.19-0.11
		c-0.14-0.1-0.29-0.2-0.43-0.31l0,0c-0.18-0.09-0.37-0.17-0.52-0.31l0,0c-0.12-0.06-0.25-0.1-0.34-0.2l-0.01-0.01l-0.01,0
		c-0.21-0.05-0.38-0.18-0.55-0.29l0,0c-0.25-0.09-0.49-0.21-0.73-0.33c-0.11-0.05-0.22-0.09-0.33-0.15
		c-0.19-0.07-0.38-0.17-0.58-0.22c-0.01-0.01-0.03-0.01-0.04-0.02c-0.2-0.08-0.4-0.16-0.61-0.22c-0.02-0.01-0.04-0.01-0.07-0.03
		c-0.07-0.05-0.15-0.06-0.23-0.08C9.88,9.64,9.51,9.53,9.13,9.43C8.69,9.31,8.25,9.22,7.8,9.14C7.73,9.13,7.66,9.1,7.59,9.08z"/>
	<path class="st2" d="M14.65,3.78c-0.19-0.02-0.37-0.06-0.56-0.07c-0.79-0.06-1.55,0.08-2.29,0.37c-0.78,0.31-1.47,0.75-2.11,1.28
		c-0.81,0.68-1.5,1.47-2.12,2.32C7.28,8.07,7.03,8.47,6.77,8.87C6.76,8.89,6.75,8.92,6.74,8.94c-0.05,0.02-0.07-0.03-0.1-0.05
		C6.55,8.77,6.45,8.68,6.37,8.55C6.36,8.54,6.35,8.53,6.33,8.51c-0.1-0.07-0.18-0.16-0.26-0.26c-0.2-0.22-0.42-0.42-0.65-0.61
		c-0.23-0.2-0.47-0.4-0.74-0.56C4.66,7.07,4.63,7.05,4.62,7.02l0,0c-0.05-0.03-0.1-0.05-0.14-0.09l0,0C4.25,6.82,4.02,6.68,3.8,6.54
		C3.76,6.52,3.72,6.5,3.69,6.47L3.69,6.46l-0.01,0C3.48,6.42,3.32,6.3,3.13,6.23C2.89,6.14,2.66,6,2.41,5.92
		c-0.03-0.01-0.07,0-0.1-0.01C2.25,5.88,2.19,5.88,2.16,5.82c-0.01-0.05,0-0.09,0.04-0.11c0.16-0.09,0.27-0.25,0.44-0.33l0,0
		C2.79,5.2,3,5.07,3.19,4.93c0.08-0.06,0.15-0.14,0.25-0.16l0,0c0.09-0.11,0.22-0.17,0.33-0.25c0.5-0.32,1.01-0.61,1.55-0.85
		C5.36,3.65,5.4,3.66,5.44,3.64l0,0c0.07-0.06,0.15-0.1,0.25-0.11l0,0c0.21-0.12,0.45-0.21,0.69-0.25c0.01,0,0.01,0,0.01,0
		c0.19-0.11,0.41-0.15,0.62-0.2c0.15-0.04,0.3-0.11,0.47-0.09C7.5,2.98,7.52,2.97,7.54,2.97c0.14-0.06,0.29-0.07,0.44-0.08l0,0
		c0.19-0.09,0.4-0.06,0.59-0.1c0.15-0.03,0.3-0.04,0.45-0.02l0,0C9.21,2.71,9.4,2.71,9.59,2.74c0.04,0.02,0.08,0,0.12,0
		c0.11-0.05,0.23-0.04,0.34-0.02c0.29,0.04,0.59,0.01,0.88,0.05c0.25,0.03,0.49,0.08,0.73,0.12c0.19,0.03,0.39,0.05,0.58,0.08
		c0.17,0.03,0.33,0.08,0.49,0.12c0.08,0.02,0.16,0.04,0.25,0.04c0.49,0.15,0.99,0.3,1.46,0.51C14.51,3.68,14.61,3.68,14.65,3.78z"/>
	<path class="st2" d="M16.55,13.24c0.04-0.02,0.04-0.05,0.05-0.08c0.15-0.54,0.28-1.08,0.39-1.64c0.12-0.63,0.2-1.27,0.22-1.92
		c0.03-0.74-0.01-1.47-0.15-2.19c-0.14-0.72-0.38-1.4-0.75-2.03c-0.31-0.53-0.7-1-1.2-1.37C15.09,4,15.08,3.99,15.06,3.97
		c0.08-0.05,0.14,0.02,0.21,0.04c0.16,0.1,0.34,0.16,0.49,0.27l0,0c0.21,0.08,0.41,0.16,0.57,0.32l0,0
		c0.02,0.02,0.06,0.01,0.07,0.04c0,0.01,0.01,0.01,0.02,0.01c0.24,0.11,0.46,0.26,0.67,0.42c0.19,0.14,0.39,0.28,0.58,0.42
		c0.19,0.14,0.36,0.3,0.54,0.45c0.03,0.02,0.05,0.04,0.06,0.08l0,0c0.25,0.19,0.46,0.42,0.68,0.64c0.34,0.35,0.65,0.72,0.93,1.11
		c0.11,0.15,0.23,0.3,0.3,0.48l0,0c0.05,0.04,0.09,0.1,0.13,0.15c0.25,0.39,0.46,0.8,0.65,1.21c0.15,0.32,0.28,0.65,0.4,0.98
		c0.01,0.04,0.01,0.08,0.02,0.11l0,0c0.07,0.11,0.1,0.22,0.11,0.35l0,0c0.09,0.14,0.09,0.31,0.15,0.47
		c0.03,0.08,0.06,0.18,0.04,0.27c-0.01,0.02-0.01,0.04,0.01,0.05c0.09,0.13,0.09,0.28,0.09,0.43c0,0.01,0,0.01,0,0.02
		c0.08,0.14,0.07,0.3,0.08,0.45l0,0c0.06,0.09,0.04,0.19,0.05,0.28c0.03,0.2,0.06,0.4,0.07,0.6c0,0.05,0,0.1-0.01,0.15l0,0
		c0.05,0.24,0.04,0.49,0.04,0.74c-0.08,0.08-0.13-0.03-0.2-0.03c-0.28-0.22-0.63-0.31-0.95-0.46c-0.18-0.08-0.37-0.15-0.56-0.21
		c-0.04-0.01-0.07-0.03-0.09-0.06c-0.04-0.01-0.07-0.02-0.11-0.04c-0.2-0.07-0.4-0.13-0.6-0.17c-0.05-0.01-0.11-0.03-0.16-0.04
		c-0.12,0.03-0.24-0.02-0.36-0.04c-0.29-0.05-0.57-0.09-0.86-0.15l0,0c-0.09,0.02-0.17-0.02-0.26-0.02l0,0
		c-0.17,0.04-0.33,0.01-0.5,0c-0.23-0.01-0.45,0.01-0.67,0.02C16.63,13.3,16.56,13.33,16.55,13.24z"/>
	<path class="st3" d="M11.79,10.28c0.12,0.04,0.23,0.08,0.33,0.15c0.03,0.1-0.04,0.16-0.09,0.23c-0.01,0.01-0.01,0.03-0.02,0.04
		c-0.03,0.03-0.02,0.09-0.06,0.12c-0.01,0.01-0.01,0.03-0.02,0.04c-0.03,0.04-0.02,0.09-0.06,0.13c-0.01,0.01-0.01,0.03-0.02,0.04
		c-0.02,0.03-0.01,0.07-0.05,0.1c-0.01,0.02-0.02,0.05-0.03,0.07c-0.16,0.4-0.35,0.8-0.52,1.19c-0.09,0.21-0.18,0.43-0.29,0.64l0,0
		c-0.04,0.05-0.02,0.12-0.07,0.17l0,0c-0.03,0.05-0.03,0.12-0.07,0.17l0,0c-0.04,0.11-0.09,0.23-0.15,0.33l-0.01,0l0,0.01
		c-0.04,0.04-0.02,0.11-0.07,0.15c-0.01,0-0.01,0.01-0.01,0.02c-0.04,0.05-0.03,0.12-0.08,0.17l0,0c-0.04,0.03-0.02,0.09-0.06,0.12
		c-0.01,0.02-0.01,0.04-0.02,0.06c-0.04,0.04-0.02,0.11-0.07,0.15l-0.01,0.01l0,0.01c-0.03,0.04-0.02,0.09-0.06,0.13
		c-0.01,0.01-0.01,0.03-0.02,0.04c-0.03,0.04-0.01,0.1-0.06,0.13c-0.01,0.01-0.01,0.03-0.02,0.04c-0.03,0.03-0.02,0.09-0.06,0.12
		c-0.01,0.01-0.01,0.03-0.02,0.04c-0.03,0.03-0.02,0.09-0.06,0.12c-0.01,0.01-0.01,0.03-0.02,0.04c-0.04,0.03-0.02,0.09-0.06,0.12
		c-0.01,0.02-0.01,0.03-0.02,0.05c-0.12,0.3-0.26,0.59-0.39,0.88c-0.11,0.25-0.22,0.5-0.33,0.76c-0.08,0.19-0.16,0.38-0.25,0.56l0,0
		c-0.04,0.05-0.02,0.12-0.07,0.17l0,0c-0.04,0.04-0.01,0.11-0.06,0.14c-0.01,0-0.01,0.01-0.01,0.02c-0.05,0.06-0.02,0.14-0.08,0.19
		l0,0c-0.04,0.04-0.02,0.11-0.06,0.14c-0.01,0-0.01,0.01-0.01,0.02c-0.04,0.04-0.02,0.11-0.07,0.15c-0.01,0-0.01,0.01-0.01,0.02
		c-0.03,0.03-0.02,0.09-0.06,0.12c-0.01,0.01-0.01,0.03-0.02,0.04c-0.03,0.03-0.02,0.09-0.06,0.12c-0.01,0.02-0.02,0.04-0.02,0.06
		c-0.02,0.03-0.01,0.08-0.05,0.1c-0.01,0.02-0.02,0.05-0.03,0.07c-0.03,0.04-0.02,0.08-0.05,0.12c-0.05,0.06-0.07,0.13-0.09,0.21
		c-0.04,0.04-0.02,0.11-0.07,0.15c-0.01,0-0.01,0.01-0.01,0.02c-0.05,0.09-0.03,0.22-0.13,0.29C8,19.5,7.88,19.45,7.78,19.37
		c-0.01-0.05,0.01-0.09,0.05-0.12l0,0c0.05-0.11,0.09-0.22,0.15-0.33l0,0c0.05-0.05,0.02-0.12,0.07-0.17l0.01-0.01l0-0.01
		c0.04-0.05,0.01-0.13,0.08-0.17l0,0c0.04-0.04,0.02-0.1,0.06-0.14c0.01,0,0.01-0.01,0.01-0.02c0.04-0.04,0.02-0.11,0.07-0.15
		c0-0.01,0.01-0.02,0.01-0.04c0.03-0.04,0.02-0.09,0.06-0.13c0.01-0.01,0.01-0.03,0.02-0.04c0.04-0.03,0.02-0.09,0.06-0.12
		c0.01-0.01,0.01-0.03,0.02-0.04c0.03-0.03,0.01-0.09,0.06-0.12c0.01-0.01,0.01-0.03,0.02-0.04c0.04-0.04,0.02-0.11,0.06-0.15
		c0.03-0.07,0.06-0.14,0.09-0.21c0.14-0.35,0.31-0.69,0.45-1.03c0.11-0.26,0.24-0.5,0.33-0.76c0.03-0.07,0.06-0.15,0.11-0.22l0,0
		c0.04-0.05,0.02-0.12,0.07-0.17l0,0c0.03-0.05,0.03-0.12,0.07-0.17l0,0c0.04-0.05,0.02-0.12,0.07-0.17l0,0
		c0.05-0.05,0.02-0.12,0.07-0.17l0.01,0l0-0.01c0.04-0.04,0.02-0.11,0.07-0.15c0.01,0,0.01-0.01,0.01-0.02
		c0.04-0.04,0.02-0.11,0.07-0.15c0.01,0,0.01-0.01,0.01-0.02c0.03-0.03,0.02-0.09,0.06-0.12c0.03-0.08,0.06-0.15,0.1-0.23
		c0.02-0.04,0.02-0.09,0.06-0.12c0.01-0.02,0.01-0.03,0.02-0.05c0.03-0.03,0.04-0.07,0.04-0.12c0-0.02,0.01-0.04,0.02-0.05
		c0.02-0.04,0.04-0.08,0.05-0.12c0.01-0.02,0.01-0.04,0.02-0.05c0.04-0.09,0.08-0.17,0.12-0.27c0.01-0.02,0.02-0.04,0.03-0.05
		c0.03-0.04,0.04-0.1,0.06-0.15c0-0.01,0.01-0.03,0.02-0.04c0.16-0.21,0.2-0.49,0.32-0.72c0.17-0.31,0.25-0.65,0.44-0.95
		c0.06-0.09,0.07-0.21,0.11-0.32c0.1-0.22,0.2-0.44,0.29-0.66C11.74,10.31,11.76,10.29,11.79,10.28z"/>
	<path class="st4" d="M14.73,3.67c0.07-0.16,0.14-0.31,0.21-0.47c0.1-0.12,0.2-0.12,0.28,0.01c0.01,0.02,0.02,0.04,0.03,0.06
		c0.02,0.05,0.04,0.1-0.01,0.15l0,0c-0.07,0.13-0.1,0.29-0.19,0.41C14.92,3.82,14.8,3.78,14.73,3.67z"/>
	<path class="st5" d="M2,6.04c0.01-0.11,0.09-0.18,0.17-0.25c0.02,0.07,0.1,0.05,0.14,0.08C2.27,5.92,2.23,5.96,2.2,6.01
		C2.15,6.09,2.1,6.1,2.02,6.05L2.01,6.04L2,6.04z"/>
	<path class="st6" d="M15.06,3.81c0.04,0.06,0.12,0.05,0.18,0.08c0.04,0.04,0.03,0.09,0.01,0.13c-0.07-0.01-0.12-0.06-0.19-0.06
		c-0.13-0.08-0.26-0.16-0.42-0.19c-0.06-0.05-0.15-0.07-0.22-0.1c0.04-0.11,0.1-0.12,0.19-0.06c0.03,0.02,0.08,0.03,0.11,0.04
		C14.83,3.73,14.94,3.78,15.06,3.81z"/>
	<path class="st7" d="M6.81,8.96c-0.04,0.05-0.08,0.1-0.12,0.16C6.64,9.18,6.6,9.16,6.56,9.13C6.5,9.08,6.52,9.04,6.56,9
		c0.03-0.04,0.07-0.08,0.1-0.13c0.03,0.02,0.06,0.05,0.09,0.07C6.76,8.95,6.79,8.95,6.81,8.96z"/>
	<path class="st8" d="M16.67,13.27c-0.01,0.05-0.03,0.1-0.03,0.16c0,0.05-0.01,0.09-0.06,0.08c-0.05-0.01-0.11,0-0.1-0.09
		c0.01-0.07,0.02-0.13,0.04-0.19c0.01,0.01,0.02,0.01,0.03,0.02C16.58,13.29,16.63,13.27,16.67,13.27z"/>
	<path class="st9" d="M21.99,14.51c0,0.07-0.04,0.13-0.03,0.21c0.01,0.04-0.03,0.07-0.08,0.05c-0.03-0.01-0.09,0-0.09-0.07
		c0-0.08,0.01-0.16,0.04-0.23C21.9,14.45,21.93,14.54,21.99,14.51z"/>
	<path class="st2" d="M5.55,19.25c0.03,0.03,0.06,0.05,0.08,0.08c0.05,0.11,0.03,0.21,0,0.32c-0.08,0.27-0.05,0.53,0.12,0.77
		c0.18,0.31,0.62,0.45,0.98,0.31c0.29-0.1,0.45-0.33,0.6-0.57c0.12-0.2,0.21-0.42,0.3-0.63c0.03-0.07,0.08-0.12,0.15-0.14
		c0.13,0.01,0.24,0.06,0.32,0.16c0.02,0.06,0.03,0.12,0,0.18c-0.16,0.35-0.31,0.7-0.55,1c-0.15,0.19-0.34,0.34-0.55,0.46
		c-0.1,0.03-0.19,0.06-0.29,0.1c-0.21,0.02-0.42,0.03-0.63-0.03c-0.43-0.11-0.74-0.37-0.91-0.78c-0.01-0.02-0.02-0.04-0.03-0.05
		c-0.04-0.15-0.07-0.29-0.09-0.44c0.01-0.17,0.02-0.34,0.08-0.51C5.22,19.24,5.32,19.18,5.55,19.25z"/>
</g>
<path class="st10" d="M13.96,15.01L13.96,15.01c-0.32,0.09-0.65-0.09-0.74-0.4l0,0c-0.08-0.25,0.03-0.53,0.25-0.67l0.83-0.42
	l0.1,0.92C14.39,14.7,14.21,14.93,13.96,15.01z"/>
<path class="st10" d="M5.68,16.27L5.68,16.27c-0.32,0.09-0.65-0.09-0.74-0.4l0,0c-0.08-0.25,0.03-0.53,0.25-0.67l0.83-0.42l0.1,0.92
	C6.11,15.96,5.94,16.19,5.68,16.27z"/>
<path class="st10" d="M4.27,10.94L4.27,10.94c-0.32,0.09-0.65-0.09-0.74-0.4l0,0c-0.08-0.25,0.03-0.53,0.25-0.67L4.6,9.44l0.1,0.92
	C4.7,10.63,4.52,10.86,4.27,10.94z"/>
<path class="st10" d="M16.05,18.81L16.05,18.81c-0.32,0.09-0.65-0.09-0.74-0.4l0,0c-0.08-0.25,0.03-0.53,0.25-0.67l0.83-0.42
	l0.1,0.92C16.48,18.5,16.3,18.74,16.05,18.81z"/>
<path class="st10" d="M20.06,16.27L20.06,16.27c-0.32,0.09-0.65-0.09-0.74-0.4l0,0c-0.08-0.25,0.03-0.53,0.25-0.67l0.83-0.42
	l0.1,0.92C20.49,15.96,20.32,16.19,20.06,16.27z"/>
</svg>
