<?xml version="1.0" encoding="utf-8"?>
<!-- Generator: Adobe Illustrator 26.0.0, SVG Export Plug-In . SVG Version: 6.00 Build 0)  -->
<svg version="1.1" xmlns="http://www.w3.org/2000/svg" xmlns:xlink="http://www.w3.org/1999/xlink" x="0px" y="0px"
	 viewBox="0 0 121 94" style="enable-background:new 0 0 121 94;" xml:space="preserve">
<style type="text/css">
	.st0{fill:url(#SVGID_1_);}
	.st1{fill:url(#SVGID_00000070803940689709906590000001846990012413031075_);}
	.st2{fill:url(#SVGID_00000177480532345717596490000015606566911103780011_);}
	.st3{opacity:0.4;fill:url(#SVGID_00000024682685254956299070000007481301866624405651_);}
	.st4{fill:url(#SVGID_00000152236066445923150690000012936024752119259564_);}
	.st5{fill:url(#SVGID_00000052106000706312748610000012057387190580059531_);}
	.st6{opacity:0.4;fill:url(#SVGID_00000090973874272925963380000003318352427580415386_);}
	.st7{opacity:0.2;fill:url(#SVGID_00000035496640608151009430000010044866379036974231_);}
	.st8{fill:url(#SVGID_00000165922835724432205970000004276058599409089169_);}
	.st9{fill:url(#SVGID_00000101793875977349245030000009696774855107191708_);}
	.st10{fill:url(#SVGID_00000133524376503424316290000008630118432660149669_);}
	.st11{opacity:0.4;fill:url(#SVGID_00000021086684024380644740000011004235232445979579_);}
	.st12{fill:url(#SVGID_00000016076611178653628760000013018776900220439685_);}
	.st13{fill:url(#SVGID_00000047745274899331583320000005031316989693580191_);}
	.st14{fill:url(#SVGID_00000160877809604742982490000008052726495840498609_);}
	.st15{opacity:0.4;fill:url(#SVGID_00000072972313760639726050000014582251916036226977_);}
	.st16{opacity:0.2;fill:url(#SVGID_00000002375996643672190800000000679978849016406970_);}
	.st17{fill:url(#SVGID_00000139286737146142379940000015759418185737738907_);}
	.st18{fill:url(#SVGID_00000016776138964325003750000013961860486685565092_);}
	.st19{fill:url(#SVGID_00000133514664251653556800000010884338077285352580_);}
	.st20{opacity:0.4;fill:url(#SVGID_00000101103284656757457060000014623856374193041588_);}
	.st21{fill:url(#SVGID_00000142171968807640232530000005034604309767842447_);}
	.st22{fill:url(#SVGID_00000090295264762339521020000006906203129669093053_);}
	.st23{fill:url(#SVGID_00000049925848997634052240000016580119526819569073_);}
	.st24{opacity:0.4;fill:url(#SVGID_00000182525559698094350240000007597420462999409310_);}
	.st25{opacity:0.2;fill:url(#SVGID_00000013180983547636352490000010303090910973217981_);}
	.st26{fill:url(#SVGID_00000092429481746399310460000014653775400288903849_);}
	.st27{fill:url(#SVGID_00000178890360716204866500000002058977372543784365_);}
	.st28{fill:url(#SVGID_00000028312702891081359900000000823631051122636706_);}
	.st29{opacity:0.4;fill:url(#SVGID_00000047782409623143623170000014056817578718616196_);}
	.st30{opacity:0.2;fill:url(#SVGID_00000070097500563344690820000011695327911049362107_);}
	.st31{fill:url(#SVGID_00000045596515419415131400000013910596021474239391_);}
	.st32{fill:url(#SVGID_00000003067156884789335370000015338589162256726972_);}
	.st33{fill:url(#SVGID_00000045601247012643946650000006168167760212180649_);}
	.st34{opacity:0.4;fill:url(#SVGID_00000142875590241338993510000009597859096544335785_);}
	.st35{fill:url(#SVGID_00000066477622672499681330000013434043211821396123_);}
	.st36{fill:url(#SVGID_00000057865679949571599160000008645977069770371739_);}
	.st37{fill:url(#SVGID_00000002386580111797400830000008524628351767579009_);}
	.st38{opacity:0.4;fill:url(#SVGID_00000044166681988825304430000003754959307928709534_);}
	.st39{opacity:0.2;fill:url(#SVGID_00000178905640976572363930000000185500636561746352_);}
	.st40{fill:url(#SVGID_00000124140836310857832150000013897310137784812471_);}
	.st41{fill:url(#SVGID_00000016765495265028063700000008779103331309577348_);}
	.st42{fill:url(#SVGID_00000093168019910369148190000004188910254618167985_);}
	.st43{opacity:0.4;fill:url(#SVGID_00000005244333106942501110000000005759923990355869_);}
	.st44{opacity:0.2;fill:url(#SVGID_00000146486465137925089300000017960459179610234292_);}
	.st45{fill:url(#SVGID_00000042695294490240502610000002873899960884856997_);}
	.st46{fill:url(#SVGID_00000165928790336914669290000011603015641891492248_);}
	.st47{fill:url(#SVGID_00000052795907899498387720000007585919646710279823_);}
	.st48{fill:url(#SVGID_00000077322803608840124570000013074812806506464959_);}
	.st49{fill:url(#SVGID_00000088112213438118862780000008626613356929725355_);}
	.st50{fill:url(#SVGID_00000132064315660790838130000008575618304485531819_);}
	.st51{fill:url(#SVGID_00000168086112508269982140000009413308275050349234_);}
	.st52{fill:url(#SVGID_00000152952217651593935910000015180463289219898269_);}
	.st53{fill:url(#SVGID_00000012442396742170633430000006713180656095221923_);}
	.st54{opacity:0.6;fill:url(#SVGID_00000021800144323787413770000010637873391175985830_);}
	.st55{opacity:0.4;fill:url(#SVGID_00000077295046927799104810000000822789006961546154_);}
	.st56{opacity:0.2;fill:url(#SVGID_00000044176674701813018200000010734331310198028185_);}
	.st57{fill:url(#SVGID_00000150798061524074613510000008327662899746755739_);}
	.st58{fill:url(#SVGID_00000021096299010917198890000018400582297784624035_);}
	.st59{opacity:0.4;fill:url(#SVGID_00000140713009219193939310000000305525332164647864_);}
	.st60{opacity:0.2;fill:url(#SVGID_00000085963096554556887150000003684108038454324669_);}
	.st61{fill:url(#SVGID_00000080915118051435615120000005180689628833905591_);}
	.st62{fill:url(#SVGID_00000051363032400664063900000016843974583531293624_);}
	.st63{fill:url(#SVGID_00000070082979023727352340000000877427351616826805_);}
	.st64{opacity:0.6;fill:url(#SVGID_00000090994249598088295800000010828351480643156864_);}
	.st65{opacity:0.4;fill:url(#SVGID_00000117658158483384738830000005335509811077858485_);}
	.st66{opacity:0.2;fill:url(#SVGID_00000013177061560283265320000012617027481668190394_);}
	.st67{fill:url(#SVGID_00000144313633471507606120000010132484391318009230_);}
	.st68{fill:url(#SVGID_00000158724408562278687890000018016514795270882441_);}
	.st69{opacity:0.4;fill:url(#SVGID_00000005247031791326146420000005674767849952177567_);}
	.st70{opacity:0.2;fill:url(#SVGID_00000150080829325767487590000002014083062352195223_);}
	.st71{fill:url(#SVGID_00000042718899756855621410000010650564005728643245_);}
	.st72{fill:url(#SVGID_00000132075007692545907730000001244554413066796207_);}
	.st73{fill:url(#SVGID_00000165221129133011108070000013520471843900841612_);}
	.st74{fill:url(#SVGID_00000147217583428508616860000018278161701851745956_);}
	.st75{fill:url(#SVGID_00000000940251033292824980000000883228297054448001_);}
	.st76{fill:url(#SVGID_00000155836692087348427430000012493805626584501387_);}
	.st77{opacity:0.4;fill:url(#SVGID_00000041297974130152842580000015992156592917809793_);}
	.st78{opacity:0.2;fill:url(#SVGID_00000023978877673349158470000004216224877223147674_);}
	.st79{fill:url(#SVGID_00000105409612288163396840000000500744134469263756_);}
	.st80{fill:url(#SVGID_00000150788021981976853360000012372922085623810735_);}
	.st81{fill:url(#SVGID_00000166647558516139964850000018010369745163269548_);}
	.st82{fill:url(#SVGID_00000075134551063376178570000008376365157987409050_);}
	.st83{fill:url(#SVGID_00000047023289400386267320000015155703777471945897_);}
	.st84{fill:url(#SVGID_00000090283234796095753260000010811365041618865818_);}
	.st85{fill:url(#SVGID_00000042712542525050608400000001329486400437346192_);}
	.st86{fill:url(#SVGID_00000113327695587307396210000000291322130304491186_);}
	.st87{fill:url(#SVGID_00000040563395729003386780000007614703187459068558_);}
	.st88{fill:#ACADB2;}
	.st89{fill:url(#SVGID_00000054965057055871665000000015038607863170443653_);}
	.st90{opacity:0.4;fill:url(#SVGID_00000157268756319605527820000000336874647349407164_);}
	.st91{fill:url(#SVGID_00000150797922924413796130000003595394126055610500_);}
	.st92{fill:url(#SVGID_00000078016132489990159150000011064390553393434793_);}
	.st93{opacity:0.4;fill:url(#SVGID_00000083050502477895162650000012615803495664429990_);}
	.st94{opacity:0.2;fill:url(#SVGID_00000026873413618121635060000016110669010750953123_);}
	.st95{fill:url(#SVGID_00000026150416226536090890000016673009967648181892_);}
	.st96{fill:url(#SVGID_00000080204673387840732130000011438101735814384542_);}
	.st97{fill:url(#SVGID_00000032642488148046892850000015712926539015553978_);}
	.st98{fill:url(#SVGID_00000173853814099183374800000005438622177356097416_);}
	.st99{fill:url(#SVGID_00000070116116625459786640000000074025354779362737_);}
	.st100{fill:url(#SVGID_00000124132857179386065570000007932084508275465394_);}
	.st101{fill:url(#SVGID_00000168116092927505941370000001104882961148466347_);}
	.st102{fill:url(#SVGID_00000104700536653316479390000016874702230100711832_);}
	.st103{fill:url(#SVGID_00000178922546233144422500000011963605892937083033_);}
	.st104{fill:url(#SVGID_00000098937812790715233580000005587547680626592390_);}
	.st105{fill:url(#SVGID_00000074418749012184085090000011448794699434568115_);}
	.st106{opacity:0.4;fill:url(#SVGID_00000132087422593183510490000015410853834421493395_);}
	.st107{fill:url(#SVGID_00000147910645711341872090000013978029948355600006_);}
	.st108{opacity:0.6;fill:url(#SVGID_00000010276578707778773900000013222393413517504702_);}
	.st109{opacity:0.4;fill:url(#SVGID_00000052824651097029883920000002956733130004187800_);}
	.st110{opacity:0.2;fill:url(#SVGID_00000047059395187605397160000003954412288518484876_);}
	.st111{fill:url(#SVGID_00000160169552231129962320000016691798894718900650_);}
	.st112{fill:url(#SVGID_00000010270337518468245500000008577515896299121591_);}
	.st113{fill:url(#SVGID_00000017474274018007664810000000449613870734850977_);}
	.st114{opacity:0.4;fill:url(#SVGID_00000069376224499551983690000014927494089455824274_);}
	.st115{fill:url(#SVGID_00000013904881941189031960000001115663578533679029_);}
	.st116{fill:url(#SVGID_00000036963314993100956430000013769599656988920762_);}
	.st117{fill:url(#SVGID_00000168079816232496576760000018434215136629845379_);}
	.st118{opacity:0.4;fill:url(#SVGID_00000105385464042850354630000001230657732282518424_);}
	.st119{opacity:0.2;fill:url(#SVGID_00000041295700614002271410000002962966865374333375_);}
	.st120{fill:url(#SVGID_00000147217002319354772200000005417658907661196445_);}
	.st121{fill:url(#SVGID_00000149362314131227153910000011038168032031885199_);}
	.st122{fill:url(#SVGID_00000059304791114476438640000017962104227002705333_);}
	.st123{fill:url(#SVGID_00000150819773533675080350000001492837363302447249_);}
	.st124{fill:url(#SVGID_00000047775218645031789060000015905844588340588712_);}
	.st125{fill:url(#SVGID_00000067200703509024672840000008584298854133656192_);}
	.st126{fill:url(#SVGID_00000111193341322467506560000017545752302144232600_);}
	.st127{fill:url(#SVGID_00000176033192319905847680000004229778877864814724_);}
	.st128{fill:url(#SVGID_00000004545215017854533790000002726216484719612341_);}
	.st129{fill:url(#SVGID_00000151511289947052549220000002422060936196182151_);}
	.st130{opacity:0.4;fill:url(#SVGID_00000020387294267485221630000002185656881117904041_);}
	.st131{opacity:0.2;fill:url(#SVGID_00000055679906901455308970000007389766389448608131_);}
	.st132{fill:url(#SVGID_00000167353924532357336630000008895577173735966893_);}
	.st133{fill:url(#SVGID_00000119809990003618552730000012334537158889021338_);}
	.st134{opacity:0.4;fill:url(#SVGID_00000158022992183513417960000002927626820225065364_);}
	.st135{opacity:0.2;fill:url(#SVGID_00000118376886998786286770000003061296604969195915_);}
	.st136{fill:url(#SVGID_00000140000838291697315500000016699458152853185689_);}
	.st137{fill:url(#SVGID_00000016062170496335576410000017017389615380419243_);}
	.st138{opacity:0.4;fill:url(#SVGID_00000133503539365886365870000001492084459018978218_);}
	.st139{opacity:0.2;fill:url(#SVGID_00000015322784164495289620000001270135647808564398_);}
	.st140{fill:url(#SVGID_00000070098079111296415640000012003003253800944547_);}
	.st141{opacity:0.6;fill:url(#SVGID_00000010312317723963735560000009874307325507110562_);}
	.st142{opacity:0.4;fill:url(#SVGID_00000011713686194338459380000005423381224552201601_);}
	.st143{opacity:0.2;fill:url(#SVGID_00000079480800661332715890000013442731382116779405_);}
	.st144{fill:url(#SVGID_00000072985458855984271530000002762091444805549749_);}
	.st145{fill:url(#SVGID_00000098215512931001480940000012048297558772384942_);}
	.st146{opacity:0.4;fill:url(#SVGID_00000038391387534252921220000010735471930869216178_);}
	.st147{opacity:0.2;fill:url(#SVGID_00000166673559242237951730000000308396039234065805_);}
	.st148{fill:url(#SVGID_00000018201120761009739390000008499782618568314815_);}
	.st149{fill:url(#SVGID_00000001654119449887441250000010676502826488166798_);}
	.st150{opacity:0.4;fill:url(#SVGID_00000009586161001711559400000012001724907809470865_);}
	.st151{opacity:0.2;fill:url(#SVGID_00000003801336871830851020000008253702123077469844_);}
	.st152{fill:url(#SVGID_00000168802685674940650800000002189205643389038986_);}
	.st153{fill:url(#SVGID_00000170985370924246233220000011380908311919861414_);}
	.st154{fill:url(#SVGID_00000079476466065452735160000008547384134191115711_);}
	.st155{fill:url(#SVGID_00000055684316537652235260000000165985489379369898_);}
	.st156{fill:url(#SVGID_00000165919550999015900770000007238720296136536201_);}
	.st157{fill:url(#SVGID_00000022538641452330312480000001274759401328211374_);}
	.st158{fill:url(#SVGID_00000088093559817178166680000015094827721532379563_);}
	.st159{fill:url(#SVGID_00000147196161801193434230000004402530721832623242_);}
	.st160{fill:url(#SVGID_00000160178306980066301400000003407697146492910243_);}
	.st161{fill:url(#SVGID_00000097497019249981841550000006840239683359133324_);}
	.st162{fill:url(#SVGID_00000014599435917671640520000005926557050576276911_);}
	.st163{fill:url(#SVGID_00000089538153390639395020000008322755067840848059_);}
	.st164{fill:url(#SVGID_00000125579986590953449300000011047049823032584587_);}
	.st165{fill:url(#SVGID_00000098907673147216417330000014181856057758685569_);}
	.st166{fill:url(#SVGID_00000049937903206435151110000016889224336914318472_);}
	.st167{fill:url(#SVGID_00000132799601376081157170000000999749394040914096_);}
	.st168{opacity:0.6;fill:url(#SVGID_00000057849900244492319150000008185017931585239229_);}
	.st169{opacity:0.4;fill:url(#SVGID_00000037650611472570492280000004627518255225532821_);}
	.st170{opacity:0.2;fill:url(#SVGID_00000099654282667461808970000017831250391991491000_);}
	.st171{fill:url(#SVGID_00000052818704604060834090000001758574107469202828_);}
	.st172{fill:url(#SVGID_00000153683537751393644070000007785243049723882660_);}
	.st173{fill:url(#SVGID_00000122694332538073378170000012510696404148758422_);}
	.st174{fill:url(#SVGID_00000021811344875914069600000016605474192319948215_);}
	.st175{fill:url(#SVGID_00000030462850999280749920000003579134984082407830_);}
	.st176{fill:url(#SVGID_00000008126437800117560350000000770629782951099288_);}
	.st177{fill:url(#SVGID_00000125601541495686982820000013689023192591726258_);}
	.st178{fill:url(#SVGID_00000012436269748539790950000004599878363141918143_);}
	.st179{fill:url(#SVGID_00000173123730303910924950000013915776945924391846_);}
	.st180{fill:url(#SVGID_00000136399165739293714260000017186844919174968205_);}
	.st181{fill:url(#SVGID_00000150821554094395043470000013585893289018624661_);}
	.st182{opacity:0.4;fill:url(#SVGID_00000092422470701897642240000015964586920194962057_);}
	.st183{fill:url(#SVGID_00000021112491817286808250000015202225800573759147_);}
	.st184{fill:#A3AAD2;}
	.st185{fill:url(#SVGID_00000021105119376495813920000005566903458259093427_);}
	.st186{fill:url(#SVGID_00000176755714757925495770000005459061943417784961_);}
	.st187{fill:url(#SVGID_00000027588276098462602800000015989755099754252417_);}
	.st188{fill:url(#SVGID_00000015352985315701946110000004404724053788638632_);}
	.st189{fill:url(#SVGID_00000052067076018483676170000002595486411030561154_);}
	.st190{fill:url(#SVGID_00000104690831409461796730000002224868488432387983_);}
	.st191{fill:url(#SVGID_00000163072310962792008940000017208532119395674534_);}
	.st192{fill:url(#SVGID_00000065042256544227769660000005156116069313726649_);}
	.st193{fill:url(#SVGID_00000125563589494660836410000013709800833813482658_);}
	.st194{fill:url(#SVGID_00000036959371647859545810000016921788966315582910_);}
	.st195{opacity:0.4;fill:url(#SVGID_00000021830105150164532510000009872138214832694408_);}
	.st196{fill:url(#SVGID_00000120560312362361263840000002891427527790178958_);}
	.st197{fill:url(#SVGID_00000112632108586241570460000014436850187649562547_);}
	.st198{opacity:0.4;fill:url(#SVGID_00000101812882059172043870000017797780375053958837_);}
	.st199{opacity:0.2;fill:url(#SVGID_00000049917951284791297880000011564912348556719017_);}
</style>
<g id="BACKGROUND">
</g>
<g id="OBJECTS">
	<g>
		<g>
			
				<radialGradient id="SVGID_1_" cx="72.1146" cy="20.8819" r="70.2558" gradientTransform="matrix(-1 0 0 -0.7305 144.2292 36.136)" gradientUnits="userSpaceOnUse">
				<stop  offset="0" style="stop-color:#FFFFFF"/>
				<stop  offset="0.198" style="stop-color:#D5F3FF"/>
				<stop  offset="1" style="stop-color:#85BCF1"/>
			</radialGradient>
			<path class="st0" d="M87.44,32.25C86.48,18.2,74.79,7.11,60.5,7.11c-14.29,0-25.98,11.1-26.94,25.15
				c-10.65,0.53-19.11,9.32-19.11,20.1c0,11.11,9.01,20.12,20.12,20.12h51.86c11.11,0,20.12-9.01,20.12-20.12
				C106.55,41.57,98.09,32.78,87.44,32.25z"/>
			
				<radialGradient id="SVGID_00000124842980302691877350000011127379886929962893_" cx="1633.14" cy="-2117.4651" r="8.476" gradientTransform="matrix(-0.8392 1.1536 -1.6186 -1.3126 -1989.1835 -4638.3999)" gradientUnits="userSpaceOnUse">
				<stop  offset="0" style="stop-color:#FFFFFF"/>
				<stop  offset="1" style="stop-color:#FFFFFF;stop-opacity:0"/>
			</radialGradient>
			<path style="fill:url(#SVGID_00000124842980302691877350000011127379886929962893_);" d="M60.5,34.75
				c-7.58-6.15-10.53-15.5-6.61-20.9c3.93-5.4,13.26-4.79,20.83,1.35c7.57,6.14,10.53,15.51,6.6,20.9
				C77.4,41.5,68.08,40.9,60.5,34.75z"/>
			
				<radialGradient id="SVGID_00000143576509857491235850000006773959807597805711_" cx="1632.8851" cy="-2133.1233" r="6.6615" gradientTransform="matrix(-0.8392 1.1536 -1.6186 -1.3126 -1989.1835 -4638.3999)" gradientUnits="userSpaceOnUse">
				<stop  offset="0" style="stop-color:#FFFFFF"/>
				<stop  offset="1" style="stop-color:#FFFFFF;stop-opacity:0"/>
			</radialGradient>
			<path style="opacity:0.4;fill:url(#SVGID_00000143576509857491235850000006773959807597805711_);" d="M87.58,52.92
				c-5.95-4.83-8.28-12.19-5.19-16.43c3.09-4.25,10.42-3.77,16.37,1.06c5.95,4.83,8.27,12.19,5.19,16.43
				C100.86,58.22,93.53,57.75,87.58,52.92z"/>
			
				<radialGradient id="SVGID_00000084515924955680366520000006303970231425398163_" cx="25.3798" cy="58.6307" r="4.8709" gradientTransform="matrix(0.901 -0.4338 1.2628 2.6229 -71.5247 -84.1435)" gradientUnits="userSpaceOnUse">
				<stop  offset="0" style="stop-color:#FFFFFF"/>
				<stop  offset="1" style="stop-color:#FFFFFF;stop-opacity:0"/>
			</radialGradient>
			<path style="opacity:0.2;fill:url(#SVGID_00000084515924955680366520000006303970231425398163_);" d="M28.83,53.59
				c-4.39-6.85-9.5-10.15-11.41-7.37c-1.9,2.78,0.11,10.59,4.5,17.44c4.4,6.85,9.5,10.15,11.41,7.37
				C35.24,68.25,33.23,60.45,28.83,53.59z"/>
		</g>
		<g>
			
				<radialGradient id="SVGID_00000021817412613183314890000005251181669727169712_" cx="38.1733" cy="78.4499" r="10.2962" gradientUnits="userSpaceOnUse">
				<stop  offset="0" style="stop-color:#D0F2FF"/>
				<stop  offset="0.198" style="stop-color:#D5F3FF"/>
				<stop  offset="1" style="stop-color:#85BCF1"/>
			</radialGradient>
			<path style="fill:url(#SVGID_00000021817412613183314890000005251181669727169712_);" d="M39.73,83.1l-1.1-0.64l0.34-0.2
				c0.27-0.16,0.36-0.5,0.21-0.77c-0.16-0.27-0.5-0.36-0.77-0.21l-0.91,0.52l-0.84-0.48c0.04-0.15,0.06-0.31,0.06-0.47
				c0-0.16-0.02-0.32-0.06-0.47l0.84-0.48l0.91,0.52c0.09,0.05,0.19,0.08,0.28,0.08c0.2,0,0.39-0.1,0.49-0.28
				c0.16-0.27,0.06-0.62-0.21-0.77l-0.34-0.2l1.1-0.64c0.27-0.16,0.36-0.5,0.21-0.77c-0.16-0.27-0.5-0.36-0.77-0.21l-1.1,0.64
				l0-0.39c0-0.31-0.25-0.57-0.57-0.57l0,0c-0.31,0-0.57,0.25-0.57,0.57l0,1.05l-0.84,0.48c-0.23-0.22-0.5-0.38-0.81-0.47v-0.97
				l0.91-0.52c0.27-0.16,0.36-0.5,0.21-0.77c-0.16-0.27-0.5-0.36-0.77-0.21l-0.34,0.2v-1.27c0-0.31-0.25-0.57-0.57-0.57
				c-0.31,0-0.57,0.25-0.57,0.57v1.27l-0.34-0.2c-0.27-0.16-0.62-0.06-0.77,0.21c-0.16,0.27-0.06,0.62,0.21,0.77l0.91,0.52v0.97
				c-0.31,0.09-0.58,0.25-0.81,0.47l-0.84-0.48v-1.05c0-0.31-0.25-0.57-0.57-0.57c-0.31,0-0.57,0.25-0.57,0.57v0.39l-1.1-0.64
				c-0.27-0.16-0.62-0.06-0.77,0.21c-0.16,0.27-0.06,0.62,0.21,0.77l1.1,0.64l-0.34,0.2c-0.27,0.16-0.36,0.5-0.21,0.77
				c0.1,0.18,0.3,0.28,0.49,0.28c0.1,0,0.19-0.02,0.28-0.08l0.91-0.52l0.84,0.48c-0.04,0.15-0.06,0.31-0.06,0.47
				c0,0.16,0.02,0.32,0.06,0.47l-0.84,0.48l-0.91-0.52c-0.27-0.16-0.62-0.06-0.77,0.21c-0.16,0.27-0.06,0.62,0.21,0.77l0.34,0.2
				l-1.1,0.64c-0.27,0.16-0.36,0.5-0.21,0.77c0.1,0.18,0.3,0.28,0.49,0.28c0.1,0,0.19-0.02,0.28-0.08l1.1-0.64v0.39
				c0,0.31,0.25,0.57,0.57,0.57c0.31,0,0.57-0.25,0.57-0.57l0-1.05l0.84-0.48c0.23,0.22,0.5,0.38,0.81,0.47v0.97l-0.91,0.52
				c-0.27,0.16-0.36,0.5-0.21,0.77c0.16,0.27,0.5,0.36,0.77,0.21l0.34-0.2v1.28c0,0.31,0.25,0.57,0.57,0.57s0.57-0.25,0.57-0.57
				v-1.27l0.34,0.2c0.09,0.05,0.19,0.08,0.28,0.08c0.2,0,0.39-0.1,0.49-0.28c0.16-0.27,0.06-0.62-0.21-0.77l-0.91-0.52v-0.97
				c0.31-0.09,0.58-0.25,0.81-0.47l0.84,0.48v1.05c0,0.31,0.25,0.57,0.57,0.57c0.31,0,0.57-0.25,0.57-0.57v-0.39l1.1,0.64
				c0.09,0.05,0.19,0.08,0.28,0.08c0.2,0,0.39-0.1,0.49-0.28C40.09,83.61,40,83.26,39.73,83.1z M34.71,81.73
				c-0.48,0-0.87-0.39-0.87-0.87c0-0.48,0.39-0.87,0.87-0.87s0.87,0.39,0.87,0.87C35.58,81.34,35.19,81.73,34.71,81.73z"/>
			
				<radialGradient id="SVGID_00000009592610217375470790000017999642584221588101_" cx="55.366" cy="78.4499" r="10.2962" gradientUnits="userSpaceOnUse">
				<stop  offset="0" style="stop-color:#D0F2FF"/>
				<stop  offset="0.198" style="stop-color:#D5F3FF"/>
				<stop  offset="1" style="stop-color:#85BCF1"/>
			</radialGradient>
			<path style="fill:url(#SVGID_00000009592610217375470790000017999642584221588101_);" d="M56.92,83.1l-1.1-0.64l0.34-0.2
				c0.27-0.16,0.36-0.5,0.21-0.77c-0.16-0.27-0.5-0.36-0.77-0.21l-0.91,0.52l-0.84-0.48c0.04-0.15,0.06-0.31,0.06-0.47
				c0-0.16-0.02-0.32-0.06-0.47l0.84-0.48l0.91,0.52c0.09,0.05,0.19,0.08,0.28,0.08c0.2,0,0.39-0.1,0.49-0.28
				c0.16-0.27,0.06-0.62-0.21-0.77l-0.34-0.2l1.1-0.64c0.27-0.16,0.36-0.5,0.21-0.77c-0.16-0.27-0.5-0.36-0.77-0.21l-1.1,0.64
				l0-0.39c0-0.31-0.25-0.57-0.57-0.57l0,0c-0.31,0-0.57,0.25-0.57,0.57l0,1.05l-0.84,0.48c-0.23-0.22-0.5-0.38-0.81-0.47v-0.97
				l0.91-0.52c0.27-0.16,0.36-0.5,0.21-0.77c-0.16-0.27-0.5-0.36-0.77-0.21l-0.34,0.2v-1.27c0-0.31-0.25-0.57-0.57-0.57
				c-0.31,0-0.57,0.25-0.57,0.57v1.27l-0.34-0.2c-0.27-0.16-0.62-0.06-0.77,0.21c-0.16,0.27-0.06,0.62,0.21,0.77l0.91,0.52v0.97
				c-0.31,0.09-0.58,0.25-0.81,0.47l-0.84-0.48v-1.05c0-0.31-0.25-0.57-0.57-0.57c-0.31,0-0.57,0.25-0.57,0.57v0.39l-1.1-0.64
				c-0.27-0.16-0.62-0.06-0.77,0.21c-0.16,0.27-0.06,0.62,0.21,0.77l1.1,0.64l-0.34,0.2c-0.27,0.16-0.36,0.5-0.21,0.77
				c0.1,0.18,0.3,0.28,0.49,0.28c0.1,0,0.19-0.02,0.28-0.08l0.91-0.52l0.84,0.48c-0.04,0.15-0.06,0.31-0.06,0.47
				c0,0.16,0.02,0.32,0.06,0.47l-0.84,0.48l-0.91-0.52c-0.27-0.16-0.62-0.06-0.77,0.21c-0.16,0.27-0.06,0.62,0.21,0.77l0.34,0.2
				l-1.1,0.64c-0.27,0.16-0.36,0.5-0.21,0.77c0.1,0.18,0.3,0.28,0.49,0.28c0.1,0,0.19-0.02,0.28-0.08l1.1-0.64v0.39
				c0,0.31,0.25,0.57,0.57,0.57c0.31,0,0.57-0.25,0.57-0.57l0-1.05l0.84-0.48c0.23,0.22,0.5,0.38,0.81,0.47v0.97l-0.91,0.52
				c-0.27,0.16-0.36,0.5-0.21,0.77c0.16,0.27,0.5,0.36,0.77,0.21l0.34-0.2v1.28c0,0.31,0.25,0.57,0.57,0.57s0.57-0.25,0.57-0.57
				v-1.27l0.34,0.2c0.09,0.05,0.19,0.08,0.28,0.08c0.2,0,0.39-0.1,0.49-0.28c0.16-0.27,0.06-0.62-0.21-0.77l-0.91-0.52v-0.97
				c0.31-0.09,0.58-0.25,0.81-0.47l0.84,0.48v1.05c0,0.31,0.25,0.57,0.57,0.57c0.31,0,0.57-0.25,0.57-0.57v-0.39l1.1,0.64
				c0.09,0.05,0.19,0.08,0.28,0.08c0.2,0,0.39-0.1,0.49-0.28C57.29,83.61,57.19,83.26,56.92,83.1z M51.9,81.73
				c-0.48,0-0.87-0.39-0.87-0.87c0-0.48,0.39-0.87,0.87-0.87s0.87,0.39,0.87,0.87C52.77,81.34,52.38,81.73,51.9,81.73z"/>
			
				<radialGradient id="SVGID_00000179614033111874046710000016231674338153986491_" cx="72.559" cy="78.4499" r="10.2962" gradientUnits="userSpaceOnUse">
				<stop  offset="0" style="stop-color:#D0F2FF"/>
				<stop  offset="0.198" style="stop-color:#D5F3FF"/>
				<stop  offset="1" style="stop-color:#85BCF1"/>
			</radialGradient>
			<path style="fill:url(#SVGID_00000179614033111874046710000016231674338153986491_);" d="M74.12,83.1l-1.1-0.64l0.34-0.2
				c0.27-0.16,0.36-0.5,0.21-0.77c-0.16-0.27-0.5-0.36-0.77-0.21l-0.91,0.52l-0.84-0.48c0.04-0.15,0.06-0.31,0.06-0.47
				c0-0.16-0.02-0.32-0.06-0.47l0.84-0.48l0.91,0.52c0.09,0.05,0.19,0.08,0.28,0.08c0.2,0,0.39-0.1,0.49-0.28
				c0.16-0.27,0.06-0.62-0.21-0.77l-0.34-0.2l1.1-0.64c0.27-0.16,0.36-0.5,0.21-0.77c-0.16-0.27-0.5-0.36-0.77-0.21l-1.1,0.64
				l0-0.39c0-0.31-0.25-0.57-0.57-0.57l0,0c-0.31,0-0.57,0.25-0.57,0.57l0,1.05l-0.84,0.48c-0.23-0.22-0.5-0.38-0.81-0.47v-0.97
				l0.91-0.52c0.27-0.16,0.36-0.5,0.21-0.77c-0.16-0.27-0.5-0.36-0.77-0.21l-0.34,0.2v-1.27c0-0.31-0.25-0.57-0.57-0.57
				c-0.31,0-0.57,0.25-0.57,0.57v1.27l-0.34-0.2c-0.27-0.16-0.62-0.06-0.77,0.21c-0.16,0.27-0.06,0.62,0.21,0.77l0.91,0.52v0.97
				c-0.31,0.09-0.58,0.25-0.81,0.47l-0.84-0.48v-1.05c0-0.31-0.25-0.57-0.57-0.57c-0.31,0-0.57,0.25-0.57,0.57v0.39l-1.1-0.64
				c-0.27-0.16-0.62-0.06-0.77,0.21c-0.16,0.27-0.06,0.62,0.21,0.77l1.1,0.64l-0.34,0.2c-0.27,0.16-0.36,0.5-0.21,0.77
				c0.1,0.18,0.3,0.28,0.49,0.28c0.1,0,0.19-0.02,0.28-0.08l0.91-0.52l0.84,0.48c-0.04,0.15-0.06,0.31-0.06,0.47
				c0,0.16,0.02,0.32,0.06,0.47l-0.84,0.48l-0.91-0.52c-0.27-0.16-0.62-0.06-0.77,0.21c-0.16,0.27-0.06,0.62,0.21,0.77l0.34,0.2
				l-1.1,0.64c-0.27,0.16-0.36,0.5-0.21,0.77c0.1,0.18,0.3,0.28,0.49,0.28c0.1,0,0.19-0.02,0.28-0.08l1.1-0.64v0.39
				c0,0.31,0.25,0.57,0.57,0.57c0.31,0,0.57-0.25,0.57-0.57l0-1.05l0.84-0.48c0.23,0.22,0.5,0.38,0.81,0.47v0.97l-0.91,0.52
				c-0.27,0.16-0.36,0.5-0.21,0.77c0.16,0.27,0.5,0.36,0.77,0.21l0.34-0.2v1.28c0,0.31,0.25,0.57,0.57,0.57
				c0.31,0,0.57-0.25,0.57-0.57v-1.27l0.34,0.2c0.09,0.05,0.19,0.08,0.28,0.08c0.2,0,0.39-0.1,0.49-0.28
				c0.16-0.27,0.06-0.62-0.21-0.77l-0.91-0.52v-0.97c0.31-0.09,0.58-0.25,0.81-0.47l0.84,0.48v1.05c0,0.31,0.25,0.57,0.57,0.57
				c0.31,0,0.57-0.25,0.57-0.57v-0.39l1.1,0.64c0.09,0.05,0.19,0.08,0.28,0.08c0.2,0,0.39-0.1,0.49-0.28
				C74.48,83.61,74.39,83.26,74.12,83.1z M69.1,81.73c-0.48,0-0.87-0.39-0.87-0.87c0-0.48,0.39-0.87,0.87-0.87s0.87,0.39,0.87,0.87
				C69.96,81.34,69.58,81.73,69.1,81.73z"/>
			
				<radialGradient id="SVGID_00000134231607111664357560000005700747688946298278_" cx="89.7519" cy="78.4499" r="10.2962" gradientUnits="userSpaceOnUse">
				<stop  offset="0" style="stop-color:#D0F2FF"/>
				<stop  offset="0.198" style="stop-color:#D5F3FF"/>
				<stop  offset="1" style="stop-color:#85BCF1"/>
			</radialGradient>
			<path style="fill:url(#SVGID_00000134231607111664357560000005700747688946298278_);" d="M91.31,83.1l-1.1-0.64l0.34-0.2
				c0.27-0.16,0.36-0.5,0.21-0.77c-0.16-0.27-0.5-0.36-0.77-0.21l-0.91,0.52l-0.84-0.48c0.04-0.15,0.06-0.31,0.06-0.47
				c0-0.16-0.02-0.32-0.06-0.47l0.84-0.48l0.91,0.52c0.09,0.05,0.19,0.08,0.28,0.08c0.2,0,0.39-0.1,0.49-0.28
				c0.16-0.27,0.06-0.62-0.21-0.77l-0.34-0.2l1.1-0.64c0.27-0.16,0.36-0.5,0.21-0.77c-0.16-0.27-0.5-0.36-0.77-0.21l-1.1,0.64
				l0-0.39c0-0.31-0.25-0.57-0.57-0.57l0,0c-0.31,0-0.57,0.25-0.57,0.57l0,1.05l-0.84,0.48c-0.23-0.22-0.5-0.38-0.81-0.47v-0.97
				l0.91-0.52c0.27-0.16,0.36-0.5,0.21-0.77c-0.16-0.27-0.5-0.36-0.77-0.21l-0.34,0.2v-1.27c0-0.31-0.25-0.57-0.57-0.57
				c-0.31,0-0.57,0.25-0.57,0.57v1.27l-0.34-0.2c-0.27-0.16-0.62-0.06-0.77,0.21c-0.16,0.27-0.06,0.62,0.21,0.77l0.91,0.52v0.97
				c-0.31,0.09-0.58,0.25-0.81,0.47l-0.84-0.48v-1.05c0-0.31-0.25-0.57-0.57-0.57c-0.31,0-0.57,0.25-0.57,0.57v0.39l-1.1-0.64
				c-0.27-0.16-0.62-0.06-0.77,0.21c-0.16,0.27-0.06,0.62,0.21,0.77l1.1,0.64l-0.34,0.2c-0.27,0.16-0.36,0.5-0.21,0.77
				c0.1,0.18,0.3,0.28,0.49,0.28c0.1,0,0.19-0.02,0.28-0.08l0.91-0.52l0.84,0.48c-0.04,0.15-0.06,0.31-0.06,0.47
				c0,0.16,0.02,0.32,0.06,0.47l-0.84,0.48l-0.91-0.52c-0.27-0.16-0.62-0.06-0.77,0.21c-0.16,0.27-0.06,0.62,0.21,0.77l0.34,0.2
				l-1.1,0.64c-0.27,0.16-0.36,0.5-0.21,0.77c0.1,0.18,0.3,0.28,0.49,0.28c0.1,0,0.19-0.02,0.28-0.08l1.1-0.64v0.39
				c0,0.31,0.25,0.57,0.57,0.57c0.31,0,0.57-0.25,0.57-0.57l0-1.05l0.84-0.48c0.23,0.22,0.5,0.38,0.81,0.47v0.97l-0.91,0.52
				c-0.27,0.16-0.36,0.5-0.21,0.77c0.16,0.27,0.5,0.36,0.77,0.21l0.34-0.2v1.28c0,0.31,0.25,0.57,0.57,0.57
				c0.31,0,0.57-0.25,0.57-0.57v-1.27l0.34,0.2c0.09,0.05,0.19,0.08,0.28,0.08c0.2,0,0.39-0.1,0.49-0.28
				c0.16-0.27,0.06-0.62-0.21-0.77l-0.91-0.52v-0.97c0.31-0.09,0.58-0.25,0.81-0.47l0.84,0.48v1.05c0,0.31,0.25,0.57,0.57,0.57
				c0.31,0,0.57-0.25,0.57-0.57v-0.39l1.1,0.64c0.09,0.05,0.19,0.08,0.28,0.08c0.2,0,0.39-0.1,0.49-0.28
				C91.67,83.61,91.58,83.26,91.31,83.1z M86.29,81.73c-0.48,0-0.87-0.39-0.87-0.87c0-0.48,0.39-0.87,0.87-0.87
				c0.48,0,0.87,0.39,0.87,0.87C87.16,81.34,86.77,81.73,86.29,81.73z"/>
		</g>
	</g>
</g>
</svg>
