<?xml version="1.0" encoding="utf-8"?>
<!-- Generator: Adobe Illustrator 26.0.0, SVG Export Plug-In . SVG Version: 6.00 Build 0)  -->
<svg version="1.1" xmlns="http://www.w3.org/2000/svg" xmlns:xlink="http://www.w3.org/1999/xlink" x="0px" y="0px"
	 viewBox="0 0 121 94" style="enable-background:new 0 0 121 94;" xml:space="preserve">
<style type="text/css">
	.st0{fill:url(#SVGID_1_);}
	.st1{fill:url(#SVGID_00000114790943143496536160000015210690981886696849_);}
	.st2{fill:url(#SVGID_00000183939239830468819660000009552242414217416113_);}
	.st3{opacity:0.4;fill:url(#SVGID_00000139282805252193670310000017333087440400308408_);}
	.st4{fill:url(#SVGID_00000095301548670953360610000008644332585859095727_);}
	.st5{fill:url(#SVGID_00000139992414919282309060000003288241833428214912_);}
	.st6{opacity:0.4;fill:url(#SVGID_00000180334194431153811760000003187819240957694345_);}
	.st7{opacity:0.2;fill:url(#SVGID_00000124161474961623099280000014336099296016058525_);}
	.st8{fill:url(#SVGID_00000157993483673110052790000010778939153019712443_);}
	.st9{fill:url(#SVGID_00000057849603471920501440000003932116636070915746_);}
	.st10{fill:url(#SVGID_00000092416988706406147750000008297075929257448343_);}
	.st11{opacity:0.4;fill:url(#SVGID_00000020374703823632273260000014087711766573196678_);}
	.st12{fill:url(#SVGID_00000096781725146744017750000017883765472138446235_);}
	.st13{fill:url(#SVGID_00000160166622321975979980000016879869011186503855_);}
	.st14{fill:url(#SVGID_00000160163106215057959010000011875579102482186422_);}
	.st15{opacity:0.4;fill:url(#SVGID_00000104669567911016380290000017250249289519178885_);}
	.st16{opacity:0.2;fill:url(#SVGID_00000106850981239355921010000016909161188661008551_);}
	.st17{fill:url(#SVGID_00000029728335108313334430000004649799256200862098_);}
	.st18{fill:url(#SVGID_00000011033491160608567780000010551906050207092899_);}
	.st19{fill:url(#SVGID_00000031172103040232111610000002487190913606990992_);}
	.st20{opacity:0.4;fill:url(#SVGID_00000002349626014360138730000001527679504148112519_);}
	.st21{fill:url(#SVGID_00000110471157277225725200000004896464964307652764_);}
	.st22{fill:url(#SVGID_00000028298276948192051980000013207768757043197829_);}
	.st23{fill:url(#SVGID_00000147188033418329463810000011837777960781161092_);}
	.st24{opacity:0.4;fill:url(#SVGID_00000001653568229814021240000002944236809295446699_);}
	.st25{opacity:0.2;fill:url(#SVGID_00000114752753828024543430000000805541876854392494_);}
	.st26{fill:url(#SVGID_00000154426437977729736590000006488023872262557372_);}
	.st27{fill:url(#SVGID_00000042010199366534510740000015353716544196593288_);}
	.st28{fill:url(#SVGID_00000008829597906042794640000000304721847371846564_);}
	.st29{opacity:0.4;fill:url(#SVGID_00000028295066969426468210000011518468160962439560_);}
	.st30{opacity:0.2;fill:url(#SVGID_00000110442065636392526740000009736999233957472444_);}
	.st31{fill:url(#SVGID_00000082366059499536002630000008580523911093383825_);}
	.st32{fill:url(#SVGID_00000143591217700635376570000015009698762537231507_);}
	.st33{fill:url(#SVGID_00000067210673794579100850000013294788268802786214_);}
	.st34{opacity:0.4;fill:url(#SVGID_00000144326635047845405930000002729463135526820757_);}
	.st35{fill:url(#SVGID_00000007406039350920273950000013458644755098019741_);}
	.st36{fill:url(#SVGID_00000150082690870349748680000001597197595348627340_);}
	.st37{fill:url(#SVGID_00000033330205381068802970000007259766726304083110_);}
	.st38{opacity:0.4;fill:url(#SVGID_00000155834045334441125090000012463887299343938472_);}
	.st39{opacity:0.2;fill:url(#SVGID_00000062176452076370137480000013443990174117669550_);}
	.st40{fill:url(#SVGID_00000111888015648347803590000013217449273831609533_);}
	.st41{fill:url(#SVGID_00000026864470790652678140000008662576899321594242_);}
	.st42{fill:url(#SVGID_00000111880288469904031500000006995614100742724011_);}
	.st43{opacity:0.4;fill:url(#SVGID_00000031888170401106222310000012759130523200677528_);}
	.st44{opacity:0.2;fill:url(#SVGID_00000123424793515319070610000015405579544404579202_);}
	.st45{fill:url(#SVGID_00000020374664746095138360000009808129865088131729_);}
	.st46{fill:url(#SVGID_00000176008575121047657230000007903797178938758035_);}
	.st47{fill:url(#SVGID_00000154422359405600576460000001220365504379269525_);}
	.st48{fill:url(#SVGID_00000059303323607852979590000002207984014901916833_);}
	.st49{fill:url(#SVGID_00000045578487654496721700000016632390482141247141_);}
	.st50{fill:url(#SVGID_00000056426139473694465880000018109263308507945612_);}
	.st51{fill:url(#SVGID_00000104704053693156093880000002216637954007253414_);}
	.st52{fill:url(#SVGID_00000156566150606191944380000009512554101115987351_);}
	.st53{fill:url(#SVGID_00000169518250409995340320000011773199649739038382_);}
	.st54{opacity:0.6;fill:url(#SVGID_00000042000941882211966590000014080283009426294667_);}
	.st55{opacity:0.4;fill:url(#SVGID_00000070106561446048063220000008786511256509992064_);}
	.st56{opacity:0.2;fill:url(#SVGID_00000054253955692708788470000001157839348941568399_);}
	.st57{fill:url(#SVGID_00000162320104776243544760000000891738328649550487_);}
	.st58{fill:url(#SVGID_00000006680129617947768860000007529218823542190492_);}
	.st59{opacity:0.4;fill:url(#SVGID_00000048467209222874641860000001934509615432814222_);}
	.st60{opacity:0.2;fill:url(#SVGID_00000005230783986389609080000002243855465815200955_);}
	.st61{fill:url(#SVGID_00000069399198276736010460000011188642704346258621_);}
	.st62{fill:url(#SVGID_00000050659137911118997550000011869531358679276177_);}
	.st63{fill:url(#SVGID_00000076571528142023082190000001986771921786486928_);}
	.st64{opacity:0.6;fill:url(#SVGID_00000070824023801651947530000014495018360530022045_);}
	.st65{opacity:0.4;fill:url(#SVGID_00000022527013716378621480000000666544147925933459_);}
	.st66{opacity:0.2;fill:url(#SVGID_00000051349636800935410020000014748391093428211111_);}
	.st67{fill:url(#SVGID_00000111910870548876397290000005742435885366366389_);}
	.st68{fill:url(#SVGID_00000070813737816083108360000004525789637802956717_);}
	.st69{opacity:0.4;fill:url(#SVGID_00000159467042786117904070000003308802186366800043_);}
	.st70{opacity:0.2;fill:url(#SVGID_00000132060856304794837840000005480706140955904641_);}
	.st71{fill:url(#SVGID_00000031189258017401558290000016005457944568053902_);}
	.st72{fill:url(#SVGID_00000106147764061818591590000005758656000510347392_);}
	.st73{fill:url(#SVGID_00000160187274357693591190000002157950275049727648_);}
	.st74{fill:url(#SVGID_00000181088856626832200740000013895631591294043064_);}
	.st75{fill:url(#SVGID_00000020362776194536551600000015552186421810235299_);}
	.st76{fill:url(#SVGID_00000128449839996933372070000014330379210699326395_);}
	.st77{opacity:0.4;fill:url(#SVGID_00000142868212611660490380000012548769949132384925_);}
	.st78{opacity:0.2;fill:url(#SVGID_00000135670367467272637210000010656269088549865385_);}
	.st79{fill:url(#SVGID_00000032650380219256558390000017656089105584161188_);}
	.st80{fill:url(#SVGID_00000013152302818226960470000003793799589027155636_);}
	.st81{fill:url(#SVGID_00000176749841333256254000000005189019567833655729_);}
	.st82{fill:url(#SVGID_00000047026720737409756150000008251975787337134246_);}
	.st83{fill:url(#SVGID_00000006704465584511012630000015980979471850051464_);}
	.st84{fill:url(#SVGID_00000126294918072552333650000012246793328919940778_);}
	.st85{fill:url(#SVGID_00000059287690871535237680000010409367127769665198_);}
	.st86{fill:url(#SVGID_00000111878273129191270340000015010251005478427015_);}
	.st87{fill:url(#SVGID_00000092445157452871966810000009514729779179888784_);}
	.st88{fill:#ACADB2;}
	.st89{fill:url(#SVGID_00000102514493438830725740000011766715408210286262_);}
	.st90{opacity:0.4;fill:url(#SVGID_00000019667264900893263990000011263341452178487170_);}
	.st91{fill:url(#SVGID_00000003104397041997675360000013894543757633258629_);}
	.st92{fill:url(#SVGID_00000031173793637443773450000015162752666091706805_);}
	.st93{opacity:0.4;fill:url(#SVGID_00000121242724361598974150000016647046553065955228_);}
	.st94{opacity:0.2;fill:url(#SVGID_00000027596323789245006220000012198297592434737585_);}
	.st95{fill:url(#SVGID_00000101065037330162642490000018229895434590650811_);}
	.st96{fill:url(#SVGID_00000061455742894439980880000014832201393405411499_);}
	.st97{fill:url(#SVGID_00000104703381118268212320000015325890303230095545_);}
	.st98{fill:url(#SVGID_00000107577363221929819970000009013223752574805398_);}
	.st99{fill:url(#SVGID_00000067937382989388112250000011269735935221100934_);}
	.st100{fill:url(#SVGID_00000045578048825220634330000018110953711053850807_);}
	.st101{fill:url(#SVGID_00000043451901135432868230000000882594232407474619_);}
	.st102{fill:url(#SVGID_00000075140313181946271750000016081528707672492703_);}
	.st103{fill:url(#SVGID_00000021835129640903960730000000689562481326666133_);}
	.st104{fill:url(#SVGID_00000026157874935378242830000002424821494820408221_);}
	.st105{fill:url(#SVGID_00000163759309721665105910000014324589020270223783_);}
	.st106{opacity:0.4;fill:url(#SVGID_00000016784592373658042750000005344114485033240483_);}
	.st107{fill:url(#SVGID_00000138566799254924439020000009584510728613266084_);}
	.st108{opacity:0.6;fill:url(#SVGID_00000176723029178295771010000005058938840134733496_);}
	.st109{opacity:0.4;fill:url(#SVGID_00000023281550708943888590000003500158509052622491_);}
	.st110{opacity:0.2;fill:url(#SVGID_00000170270839310865626760000015210496918472868243_);}
	.st111{fill:url(#SVGID_00000060739298086414190090000010225852808402512796_);}
	.st112{fill:url(#SVGID_00000109742899394208819110000009639372185042897341_);}
	.st113{fill:url(#SVGID_00000124153535754014899980000001414701133408854925_);}
	.st114{opacity:0.4;fill:url(#SVGID_00000052073528597143631050000012736610718814203807_);}
	.st115{fill:url(#SVGID_00000054248726357774930330000009210159968197108408_);}
	.st116{fill:url(#SVGID_00000094578746330579602580000013413445737294355610_);}
	.st117{fill:url(#SVGID_00000059996884516010418980000012510989131813198479_);}
	.st118{opacity:0.4;fill:url(#SVGID_00000132073196513498199360000016752961213836882567_);}
	.st119{opacity:0.2;fill:url(#SVGID_00000082334224913305563110000008770268250906420898_);}
	.st120{fill:url(#SVGID_00000180344447338562274450000007656537849817305491_);}
	.st121{fill:url(#SVGID_00000043455120558179277500000004273085138166742934_);}
	.st122{fill:url(#SVGID_00000008836383487909800900000005003228746363032459_);}
	.st123{fill:url(#SVGID_00000042714859363593686660000000271905741091232695_);}
	.st124{fill:url(#SVGID_00000016787976470038999320000014950745157069709998_);}
	.st125{fill:url(#SVGID_00000002353536034915885050000004663569731453542787_);}
	.st126{fill:url(#SVGID_00000066482539458239681810000002572200172111429783_);}
	.st127{fill:url(#SVGID_00000145035143333607555710000006162909325754926483_);}
	.st128{fill:url(#SVGID_00000008853078136878375890000002218770193951999385_);}
	.st129{fill:url(#SVGID_00000163763888094777856470000003519629381442856885_);}
	.st130{opacity:0.4;fill:url(#SVGID_00000042728079373080193210000004788977017559694520_);}
	.st131{opacity:0.2;fill:url(#SVGID_00000115476607922867709790000013114320297005496752_);}
	.st132{fill:url(#SVGID_00000012452765406526304180000012299793683471514808_);}
	.st133{fill:url(#SVGID_00000145752999687328743250000014149411965724677263_);}
	.st134{opacity:0.4;fill:url(#SVGID_00000121256225938617807160000013161577656237878428_);}
	.st135{opacity:0.2;fill:url(#SVGID_00000003082361233668270570000009005993198833197220_);}
	.st136{fill:url(#SVGID_00000098915013501971052520000013081995220441040791_);}
	.st137{fill:url(#SVGID_00000178916511789232196420000007616462457162149535_);}
	.st138{opacity:0.4;fill:url(#SVGID_00000157988425994219317060000008077673455806806176_);}
	.st139{opacity:0.2;fill:url(#SVGID_00000049910913535135123990000011901823619615108258_);}
	.st140{fill:url(#SVGID_00000149379854282635878590000014883250097935091888_);}
	.st141{opacity:0.6;fill:url(#SVGID_00000013907674861510838760000015999924905201105541_);}
	.st142{opacity:0.4;fill:url(#SVGID_00000070095884716749221750000013146273684513006464_);}
	.st143{opacity:0.2;fill:url(#SVGID_00000058587897035224270710000001046519587878587035_);}
	.st144{fill:url(#SVGID_00000142857322969571281720000009201803773423190453_);}
	.st145{fill:url(#SVGID_00000119089141697690790860000016833369522218550934_);}
	.st146{opacity:0.4;fill:url(#SVGID_00000107562871601444143590000017966017921718028686_);}
	.st147{opacity:0.2;fill:url(#SVGID_00000088134734416100655700000001865110187229251968_);}
	.st148{fill:url(#SVGID_00000114753410718662263210000001275191359272940687_);}
	.st149{fill:url(#SVGID_00000049942293558812001290000011880903521600117632_);}
	.st150{opacity:0.4;fill:url(#SVGID_00000130624307822958057120000017645799572488412588_);}
	.st151{opacity:0.2;fill:url(#SVGID_00000176042763571965612910000008264646897214255770_);}
	.st152{fill:url(#SVGID_00000057144764167988472400000016892413662649319313_);}
	.st153{fill:url(#SVGID_00000088104052473535853300000005272417786647703683_);}
	.st154{fill:url(#SVGID_00000095324605373958337300000015965742531565947289_);}
	.st155{fill:url(#SVGID_00000031199679377684821200000014397032016358970273_);}
	.st156{fill:url(#SVGID_00000013160848911024109690000008136568829536838041_);}
	.st157{fill:url(#SVGID_00000133493231641908902770000006350578508383866518_);}
	.st158{fill:url(#SVGID_00000017478070920583413210000017916731570779186819_);}
	.st159{fill:url(#SVGID_00000120517836327454754580000006450663259500606892_);}
	.st160{fill:url(#SVGID_00000139263266015803540090000005891971696462010538_);}
	.st161{fill:url(#SVGID_00000060716751582878646140000001923744109995154103_);}
	.st162{fill:url(#SVGID_00000028311095975010033510000011164922756291568027_);}
	.st163{fill:url(#SVGID_00000012433138276464671870000017559549333974397100_);}
	.st164{fill:url(#SVGID_00000033348428835850866200000006076160390056509368_);}
	.st165{fill:url(#SVGID_00000124141995243872187850000008564171811367985342_);}
	.st166{fill:url(#SVGID_00000126292891836834808560000003785708410481925558_);}
	.st167{fill:url(#SVGID_00000083057822642544551860000005503702296278538888_);}
	.st168{opacity:0.6;fill:url(#SVGID_00000034805974304733346250000002165579311177326782_);}
	.st169{opacity:0.4;fill:url(#SVGID_00000055668312863112458020000013028628148357477790_);}
	.st170{opacity:0.2;fill:url(#SVGID_00000011026555995233471590000002534494815275671691_);}
	.st171{fill:url(#SVGID_00000101075925036957590510000009222099636182228881_);}
	.st172{fill:url(#SVGID_00000145058368622246477590000017319344083897947792_);}
	.st173{fill:url(#SVGID_00000058565577870576920990000008418205545084702369_);}
	.st174{fill:url(#SVGID_00000114785297614409840790000008148470205209699722_);}
	.st175{fill:url(#SVGID_00000035516850060521594310000008544101424758934707_);}
	.st176{fill:url(#SVGID_00000076589771791214093490000001454527249679730097_);}
	.st177{fill:url(#SVGID_00000172431140135332266710000008911734638351567542_);}
	.st178{fill:url(#SVGID_00000044176916744541503890000008529005205695290805_);}
	.st179{fill:url(#SVGID_00000060718220484217541060000000440614781110904233_);}
	.st180{fill:url(#SVGID_00000119084304371827704960000009075120033623604398_);}
	.st181{fill:url(#SVGID_00000035511498670341371070000014762196902921465231_);}
	.st182{opacity:0.4;fill:url(#SVGID_00000032634692740209244080000013084903515407235234_);}
	.st183{fill:url(#SVGID_00000141426211260690333550000008925252362400994235_);}
	.st184{fill:#A3AAD2;}
	.st185{fill:url(#SVGID_00000020378431003493534810000015415520075385593756_);}
	.st186{fill:url(#SVGID_00000137816049767486063820000006266805147257660809_);}
	.st187{fill:url(#SVGID_00000078045445702955613380000007773241601613282445_);}
	.st188{fill:url(#SVGID_00000103953521084381506810000008518397045675070867_);}
	.st189{fill:url(#SVGID_00000149347328729198211900000003602295302897648279_);}
	.st190{fill:url(#SVGID_00000018948347739691890420000002508750751734536874_);}
	.st191{fill:url(#SVGID_00000044870368426352083540000017586813774888567709_);}
	.st192{fill:url(#SVGID_00000067229011752368780120000004087334571931490709_);}
	.st193{fill:url(#SVGID_00000004524730595752230000000000185928045368786101_);}
	.st194{fill:url(#SVGID_00000140711224125499564750000014126963295738747826_);}
	.st195{opacity:0.4;fill:url(#SVGID_00000004509139579149118760000016408531826041155488_);}
	.st196{fill:url(#SVGID_00000042009431374002732540000014353521975721465736_);}
	.st197{fill:url(#SVGID_00000018942145313368889370000015283129073091269264_);}
	.st198{opacity:0.4;fill:url(#SVGID_00000094585427526367667770000018169170056512200867_);}
	.st199{opacity:0.2;fill:url(#SVGID_00000103254339890491972090000004897965096533335474_);}
</style>
<g id="BACKGROUND">
</g>
<g id="OBJECTS">
	<g>
		<radialGradient id="SVGID_1_" cx="86.701" cy="60.1285" r="37.0698" gradientUnits="userSpaceOnUse">
			<stop  offset="0" style="stop-color:#28CBE9"/>
			<stop  offset="1" style="stop-color:#0A4FBB"/>
		</radialGradient>
		<path class="st0" d="M92.31,76.88l-3.98-2.29l1.23-0.71c0.98-0.56,1.31-1.81,0.75-2.79c-0.56-0.97-1.81-1.31-2.79-0.75l-3.27,1.89
			l-3.02-1.74c0.13-0.54,0.21-1.1,0.21-1.69c0-0.58-0.08-1.14-0.21-1.68l3.02-1.74l3.27,1.89c0.32,0.19,0.67,0.28,1.02,0.28
			c0.71,0,1.39-0.37,1.77-1.02c0.56-0.98,0.23-2.22-0.75-2.79l-1.23-0.71l3.98-2.29c0.98-0.56,1.31-1.81,0.75-2.79
			c-0.56-0.98-1.81-1.31-2.79-0.75l-3.97,2.29l0-1.42c0-1.13-0.92-2.04-2.04-2.04l0,0c-1.13,0-2.04,0.91-2.04,2.04l0,3.78
			l-3.02,1.75c-0.82-0.78-1.81-1.36-2.92-1.69v-3.48l3.27-1.89c0.98-0.56,1.31-1.81,0.75-2.79c-0.56-0.98-1.81-1.31-2.79-0.75
			l-1.23,0.71v-4.59c0-1.13-0.91-2.04-2.04-2.04c-1.13,0-2.04,0.91-2.04,2.04v4.59l-1.23-0.71c-0.97-0.56-2.22-0.23-2.79,0.75
			c-0.56,0.97-0.23,2.22,0.75,2.79l3.27,1.89v3.48c-1.11,0.33-2.1,0.91-2.92,1.69l-3.02-1.75v-3.78c0-1.13-0.91-2.04-2.04-2.04
			c-1.13,0-2.04,0.91-2.04,2.04v1.42l-3.97-2.29c-0.98-0.56-2.22-0.23-2.79,0.75c-0.56,0.97-0.23,2.22,0.75,2.79l3.97,2.29
			l-1.23,0.71c-0.97,0.56-1.31,1.81-0.75,2.79c0.38,0.65,1.06,1.02,1.77,1.02c0.34,0,0.7-0.09,1.02-0.27l3.27-1.89l3.02,1.74
			c-0.13,0.54-0.21,1.1-0.21,1.68c0,0.58,0.08,1.14,0.21,1.69l-3.02,1.74l-3.27-1.89c-0.98-0.57-2.22-0.23-2.79,0.75
			c-0.56,0.97-0.23,2.22,0.75,2.79l1.23,0.71l-3.98,2.29c-0.98,0.56-1.31,1.81-0.75,2.79c0.38,0.66,1.06,1.02,1.77,1.02
			c0.35,0,0.7-0.09,1.02-0.27l3.97-2.29v1.42c0,1.13,0.91,2.04,2.04,2.04c1.13,0,2.04-0.91,2.04-2.04l0-3.78l3.02-1.75
			c0.82,0.78,1.81,1.36,2.91,1.69v3.49l-3.27,1.89c-0.98,0.56-1.31,1.81-0.75,2.79c0.56,0.98,1.81,1.31,2.79,0.75l1.23-0.71v4.59
			c0,1.13,0.91,2.04,2.04,2.04c1.13,0,2.04-0.91,2.04-2.04V83.9l1.23,0.71c0.32,0.19,0.67,0.28,1.02,0.28
			c0.71,0,1.39-0.37,1.77-1.02c0.56-0.97,0.23-2.22-0.75-2.79l-3.27-1.89v-3.49c1.11-0.33,2.1-0.91,2.92-1.69l3.02,1.74v3.78
			c0,1.13,0.91,2.04,2.04,2.04c1.13,0,2.04-0.91,2.04-2.04v-1.42l3.97,2.3c0.32,0.19,0.67,0.27,1.02,0.27
			c0.71,0,1.39-0.37,1.77-1.02C93.62,78.69,93.29,77.44,92.31,76.88z M74.23,71.92c-1.72,0-3.12-1.4-3.12-3.12
			c0-1.72,1.4-3.12,3.12-3.12c1.72,0,3.12,1.4,3.12,3.12C77.36,70.52,75.96,71.92,74.23,71.92z"/>
		<g>
			
				<linearGradient id="SVGID_00000158023862475894783730000005957925725182973108_" gradientUnits="userSpaceOnUse" x1="27.6698" y1="47" x2="66.8265" y2="47">
				<stop  offset="0" style="stop-color:#DBE1FF"/>
				<stop  offset="1" style="stop-color:#CBD1E9"/>
			</linearGradient>
			<path style="fill:url(#SVGID_00000158023862475894783730000005957925725182973108_);" d="M66.83,82.81
				c0,4.27-3.46,7.72-7.72,7.72H35.39c-4.26,0-7.72-3.46-7.72-7.72V11.19c0-4.27,3.46-7.72,7.72-7.72H59.1
				c4.27,0,7.72,3.46,7.72,7.72V82.81z"/>
			<path class="st184" d="M43.42,71.47c0,2.11,1.71,3.83,3.83,3.83c2.11,0,3.83-1.71,3.83-3.83V18.29c0-2.12-1.71-3.83-3.83-3.83
				c-2.11,0-3.83,1.71-3.83,3.83V71.47z"/>
			
				<linearGradient id="SVGID_00000136396756092762145300000015198856307771191460_" gradientUnits="userSpaceOnUse" x1="47.2489" y1="56.1259" x2="47.2489" y2="65.3154">
				<stop  offset="0" style="stop-color:#28CBE9"/>
				<stop  offset="1" style="stop-color:#0A4FBB"/>
			</linearGradient>
			<path style="fill:url(#SVGID_00000136396756092762145300000015198856307771191460_);" d="M43.42,71.47
				c0,2.11,1.71,3.83,3.83,3.83c2.11,0,3.83-1.71,3.83-3.83v-9.91c0-2.11-1.71-3.83-3.83-3.83c-2.11,0-3.83,1.71-3.83,3.83V71.47z"
				/>
			
				<radialGradient id="SVGID_00000075882998992863650770000013914025527299754639_" cx="44.5277" cy="78.5623" r="11.4018" gradientUnits="userSpaceOnUse">
				<stop  offset="0" style="stop-color:#54F5FF"/>
				<stop  offset="0.1183" style="stop-color:#28CBE9"/>
				<stop  offset="1" style="stop-color:#0A4FBB"/>
			</radialGradient>
			<path style="fill:url(#SVGID_00000075882998992863650770000013914025527299754639_);" d="M55.14,74.44
				c0,4.36-3.53,7.89-7.89,7.89c-4.36,0-7.89-3.53-7.89-7.89c0-4.36,3.53-7.89,7.89-7.89C51.61,66.54,55.14,70.08,55.14,74.44z"/>
			<path class="st184" d="M59.81,21.77c0,0.42-0.34,0.77-0.77,0.77h-3.59c-0.42,0-0.77-0.34-0.77-0.77l0,0
				c0-0.42,0.34-0.77,0.77-0.77h3.59C59.47,21,59.81,21.34,59.81,21.77L59.81,21.77z"/>
			<path class="st184" d="M59.81,32.96c0,0.42-0.34,0.77-0.77,0.77h-3.59c-0.42,0-0.77-0.34-0.77-0.77l0,0
				c0-0.42,0.34-0.77,0.77-0.77h3.59C59.47,32.2,59.81,32.54,59.81,32.96L59.81,32.96z"/>
			<path class="st184" d="M59.81,44.16c0,0.42-0.34,0.77-0.77,0.77h-3.59c-0.42,0-0.77-0.34-0.77-0.77l0,0
				c0-0.42,0.34-0.77,0.77-0.77h3.59C59.47,43.39,59.81,43.73,59.81,44.16L59.81,44.16z"/>
			<path class="st184" d="M59.81,55.35c0,0.42-0.34,0.77-0.77,0.77h-3.59c-0.42,0-0.77-0.34-0.77-0.77l0,0
				c0-0.42,0.34-0.77,0.77-0.77h3.59C59.47,54.58,59.81,54.93,59.81,55.35L59.81,55.35z"/>
			<path class="st184" d="M59.81,66.54c0,0.42-0.34,0.77-0.77,0.77h-3.59c-0.42,0-0.77-0.34-0.77-0.77l0,0
				c0-0.42,0.34-0.77,0.77-0.77h3.59C59.47,65.78,59.81,66.12,59.81,66.54L59.81,66.54z"/>
		</g>
	</g>
</g>
</svg>
