<?xml version="1.0" encoding="utf-8"?>
<!-- Generator: Adobe Illustrator 26.0.0, SVG Export Plug-In . SVG Version: 6.00 Build 0)  -->
<svg version="1.1" id="Capa_1" xmlns="http://www.w3.org/2000/svg" xmlns:xlink="http://www.w3.org/1999/xlink" x="0px" y="0px"
	 viewBox="0 0 20 19.83" style="enable-background:new 0 0 20 19.83;" xml:space="preserve">
<style type="text/css">
	.st0{fill:#BFE4F5;}
	.st1{fill:#9ED8F2;}
	.st2{fill:#6EC9F0;}
	.st3{fill:#D5EDF9;}
	.st4{fill:#CDE9F7;}
	.st5{fill:#FFFFFF;}
</style>
<g>
	<path class="st5" d="M11,3.41c0-1.93-1.57-3.5-3.5-3.5c-2.03,0-3.25,1.53-3.25,3h2c0-0.41,0.39-1,1.25-1c0.83,0,1.5,0.67,1.5,1.5
		s-0.67,1.5-1.5,1.5H0v2h7.5C9.43,6.91,11,5.34,11,3.41z M13.5,12.91H6v2h7.5c0.83,0,1.5,0.67,1.5,1.5s-0.67,1.5-1.5,1.5
		c-0.86,0-1.25-0.58-1.25-1h-2c0,1.48,1.22,3,3.25,3c1.93,0,3.5-1.57,3.5-3.5S15.43,12.91,13.5,12.91z"/>
	<path class="st5" d="M16,2.91c-2.21,0-4,1.79-4,4h2c0-1.1,0.9-2,2-2s2,0.9,2,2s-0.9,2-2,2H0v2h16c2.21,0,4-1.79,4-4
		S18.21,2.91,16,2.91z M0,12.91h4v2H0V12.91z"/>
</g>
</svg>
