<svg xmlns="http://www.w3.org/2000/svg" xml:space="preserve" x="0px" y="0px" viewBox="0 0 121 94"><linearGradient id="a" x1="95.3917" x2="28.1336" y1="8.0095" y2="83.1685" gradientUnits="userSpaceOnUse"><stop offset="0" style="stop-color:#ffba24"/><stop offset="1" style="stop-color:#f50"/></linearGradient><path d="m90.44 70.85-8.38.55-1.58 8.25-8.07-2.35-4.3 7.22-6.78-4.97-6.51 5.31-4.67-6.99-7.94 2.76-2-8.16-8.4-.12.92-8.36-7.86-2.98 3.72-7.54-6.36-5.5 6.07-5.81-4.09-7.33 7.69-3.39-1.34-8.29 8.38-.55 1.58-8.25 8.07 2.35 4.3-7.22 6.78 4.97 6.51-5.31 4.67 6.99 7.94-2.76 2 8.16 8.4.12-.92 8.35 7.86 2.99-3.72 7.54 6.36 5.49-6.07 5.81 4.09 7.34-7.69 3.38z" style="fill:url(#a)"/><radialGradient id="b" cx="410.0808" cy="29.2289" r="53.8068" gradientTransform="matrix(-1 0 0 1 477.063 0)" gradientUnits="userSpaceOnUse"><stop offset="0" style="stop-color:#fff4c3"/><stop offset="0.1559" style="stop-color:#ffe036"/><stop offset="1" style="stop-color:#fa761c"/></radialGradient><path d="M32.16 47c0 15.65 12.69 28.35 28.34 28.35S88.84 62.66 88.84 47c0-15.65-12.69-28.34-28.34-28.34S32.16 31.35 32.16 47" style="fill:url(#b)"/><radialGradient id="c" cx="1399.6525" cy="-1564.0563" r="8.0769" gradientTransform="matrix(-.8392 1.1536 -1.6186 -1.3126 -1285.397 -3632.854)" gradientUnits="userSpaceOnUse"><stop offset="0" style="stop-color:#fff"/><stop offset="1" style="stop-color:#fff;stop-opacity:0"/></radialGradient><path d="M64.82 44.08c-7.22-5.86-10.04-14.77-6.3-19.92s12.63-4.57 19.85 1.29 10.03 14.78 6.29 19.92c-3.74 5.15-12.62 4.57-19.84-1.29" style="fill:url(#c)"/><radialGradient id="d" cx="-2500.0798" cy="2988.8223" r="7.7937" gradientTransform="matrix(-1.1717 -1.1007 .222 -.7283 -3548.281 -513.236)" gradientUnits="userSpaceOnUse"><stop offset="0" style="stop-color:#fff"/><stop offset="1" style="stop-color:#fff;stop-opacity:0"/></radialGradient><path d="M35.45 53.26c.96-3.13 5.82-1.84 10.86 2.9s8.36 11.12 7.4 14.26c-.95 3.13-5.82 1.84-10.86-2.9s-8.35-11.13-7.4-14.26" style="opacity:.4;fill:url(#d)"/></svg>