<svg xmlns="http://www.w3.org/2000/svg" xml:space="preserve" x="0px" y="0px" viewBox="0 0 121 94"><radialGradient id="a" cx="72.1146" cy="28.0927" r="70.2572" gradientTransform="matrix(-1 0 0 -.7305 144.23 48.614)" gradientUnits="userSpaceOnUse"><stop offset="0" style="stop-color:#fff"/><stop offset="0.198" style="stop-color:#d5f3ff"/><stop offset="1" style="stop-color:#85bcf1"/></radialGradient><path d="M87.44 39.46c-.96-14.04-12.65-25.14-26.94-25.14s-25.98 11.1-26.94 25.15c-10.65.53-19.11 9.32-19.11 20.1 0 11.12 9.01 20.12 20.12 20.12h51.86c11.11 0 20.12-9.01 20.12-20.12 0-10.78-8.46-19.58-19.11-20.11" style="fill:url(#a)"/><radialGradient id="b" cx="1210.8785" cy="-1612.7406" r="8.4763" gradientTransform="matrix(-.8392 1.1536 -1.6186 -1.3126 -1526.598 -3481.566)" gradientUnits="userSpaceOnUse"><stop offset="0" style="stop-color:#fff"/><stop offset="1" style="stop-color:#fff;stop-opacity:0"/></radialGradient><path d="M60.5 41.97c-7.58-6.15-10.53-15.5-6.61-20.9 3.93-5.4 13.26-4.8 20.84 1.35 7.57 6.15 10.53 15.51 6.6 20.9-3.93 5.4-13.25 4.79-20.83-1.35" style="fill:url(#b)"/><radialGradient id="c" cx="1210.6244" cy="-1628.3983" r="6.6616" gradientTransform="matrix(-.8392 1.1536 -1.6186 -1.3126 -1526.598 -3481.566)" gradientUnits="userSpaceOnUse"><stop offset="0" style="stop-color:#fff"/><stop offset="1" style="stop-color:#fff;stop-opacity:0"/></radialGradient><path d="M87.58 60.13c-5.95-4.83-8.28-12.19-5.19-16.43s10.42-3.77 16.38 1.06c5.95 4.83 8.27 12.19 5.19 16.43-3.1 4.24-10.43 3.77-16.38-1.06" style="opacity:.4;fill:url(#c)"/><radialGradient id="d" cx="25.3799" cy="65.8422" r="4.8712" gradientTransform="matrix(.901 -.4338 1.2628 2.6229 -80.631 -95.847)" gradientUnits="userSpaceOnUse"><stop offset="0" style="stop-color:#fff"/><stop offset="1" style="stop-color:#fff;stop-opacity:0"/></radialGradient><path d="M28.83 60.81c-4.39-6.85-9.5-10.15-11.41-7.37-1.9 2.78.11 10.59 4.5 17.45 4.4 6.85 9.5 10.15 11.41 7.37 1.91-2.79-.1-10.6-4.5-17.45" style="opacity:.2;fill:url(#d)"/></svg>