<svg xmlns="http://www.w3.org/2000/svg" xml:space="preserve" id="Capa_1" x="0px" y="0px" version="1.1" viewBox="0 0 16 19.83"><style>.st1{fill:#9ed8f2}.st2{fill:#6ec9f0}</style><path d="M14.99 11.63c-.86 1.03-1.97 1.54-3.31 1.55-.13.08-.28.05-.42.04-1.51-.18-2.66-.94-3.4-2.26-.43-.77-.6-1.61-.51-2.51.1-.93.4-1.81.8-2.65.07-.14.12-.29.2-.42.04-.06.06-.13.13-.15.41-.76.88-1.48 1.39-2.18.44-.6.92-1.16 1.4-1.73.08-.09.18-.15.28-.23h.28c.28.17.47.43.66.69-.13.27-.32.5-.48.75-.54.82-1.01 1.67-1.36 2.58-.31.83-.5 1.68-.44 2.58.06.79.32 1.51.79 2.15.45.62 1.02 1.08 1.72 1.4.06.03.15.04.14.13-.01.08-.09.1-.15.12-.28.1-.56.17-.85.19-.06 0-.13 0-.19.02-.15.04-.24.14-.24.28s.11.25.27.26c.15.01.3-.02.44-.03.52-.07 1-.25 1.43-.55.08-.05.16-.1.25-.08.32.05.64.02.96.03.08-.02.16-.03.21.02" style="fill:#bfe4f5"/><path d="M11.61 13.8c-.06.45-.18.88-.36 1.3-.31.75-.75 1.41-1.34 1.97-.02.02-.04.03-.05.04-.14.09-.3.09-.45.1-.35.02-.71.06-1.06-.03-.09-.06-.03-.1.02-.14.16-.11.32-.22.48-.34.72-.56 1.22-1.27 1.55-2.11.02-.05.04-.11.04-.17 0-.11-.05-.2-.16-.24-.11-.05-.2-.01-.28.07-.05.05-.08.12-.11.19-.47 1.15-1.28 1.98-2.43 2.46q-.015 0-.03.03c.2.05.4.1.6.13.09.01.2.01.27.08 0 .05-.04.06-.08.08-.4.21-.81.38-1.25.48-.07.02-.15.03-.22.03-.16-.01-.29-.11-.32-.24-.04-.17.04-.33.19-.4s.32-.09.49-.15c-.77-.25-1.46-.63-2.06-1.16-.88-.76-1.48-1.7-1.8-2.81-.17-.58-.25-1.18-.23-1.78.03-.77.17-1.52.4-2.26.45-1.42 1.15-2.72 1.95-3.97.43-.65.88-1.28 1.35-1.9.47.55.94 1.1 1.38 1.68-.45.79-.81 1.62-1.05 2.5-.14.52-.24 1.04-.24 1.57 0 1.04.27 2.01.89 2.86.82 1.14 1.92 1.82 3.31 2.04.15.02.31.02.46.05.04.01.1 0 .14.04" class="st1"/><path d="M8.31 17.14c.47.06.94.06 1.41-.03.04-.01.09 0 .14-.01-.39.41-.85.71-1.34.97-.52.28-1.06.46-1.64.56-1.42.25-2.76.02-4-.71C1.6 17.16.73 16.06.27 14.65c-.26-.8-.32-1.62-.23-2.46.15-1.49.71-2.84 1.4-4.15.63-1.2 1.39-2.32 2.22-3.39.57-.74 1.17-1.45 1.8-2.14.25-.27.51-.27.77 0 .17.18.33.37.49.55.01.09-.05.15-.1.21-.72.95-1.38 1.94-1.96 2.98-.43.77-.8 1.56-1.08 2.39-.21.62-.38 1.24-.44 1.9-.03.3-.07.6-.06.9.05 1.28.43 2.44 1.22 3.47.51.66 1.13 1.18 1.85 1.58.31.17.64.3.98.42.03.01.06.03.1.04-.16.08-.33.1-.48.15-.22.07-.31.22-.26.41.04.14.22.22.42.17.38-.09.75-.21 1.1-.39.09-.05.2-.1.3-.15" class="st2"/><path d="M14.99 11.63c-.39-.02-.78.03-1.17-.03a.23.23 0 0 0-.19.06c-.5.35-1.05.57-1.67.6-.12.01-.23.05-.35.01-.15-.05-.23-.16-.23-.3s.07-.26.23-.3c.23-.05.47-.03.69-.1.15-.05.31-.08.46-.14.03-.01.07-.02.07-.06s-.04-.05-.07-.06a4.23 4.23 0 0 1-2.19-2.1 4.2 4.2 0 0 1-.41-1.72c-.03-.95.23-1.84.58-2.71.42-1.04 1.02-1.98 1.65-2.91.02-.03.06-.05.09-.08.27.26.49.56.71.85.53.7 1.04 1.42 1.48 2.18.53.93.97 1.89 1.2 2.94.11.5.16 1.01.11 1.52-.07.68-.27 1.32-.65 1.89-.1.16-.2.32-.34.46" style="fill:#d5edf9"/><path d="M11.61 13.8c-.89-.02-1.71-.26-2.47-.72a4.86 4.86 0 0 1-2.31-3.5c-.17-1.24.13-2.4.59-3.53.15-.38.34-.74.52-1.1.03-.08.06-.17.16-.2.13.16.25.32.38.48-.43.8-.78 1.63-.97 2.52-.22 1.02-.17 2.01.28 2.96.52 1.07 1.33 1.82 2.45 2.23.46.17.94.26 1.44.25 0 .2-.03.41-.07.61" class="st2"/><path d="M8.31 17.14c-.33-.02-.65-.1-.97-.19.01-.07.07-.07.11-.09a4.34 4.34 0 0 0 1.92-1.52c.21-.29.38-.61.51-.95.1-.26.27-.34.47-.23.14.08.19.24.12.42-.35.85-.84 1.59-1.58 2.16-.19.14-.39.26-.58.4" style="fill:#cde9f7"/><path d="M5 17.11c.17.03.39.05.6.09.18.04.26.19.23.36-.03.13-.21.25-.36.23-.17-.02-.34-.04-.51-.07-.28-.04-.4-.21-.31-.45.06-.14.17-.16.35-.16" class="st1"/><path d="M12.94 11.36c.4-.23.73-.5.99-.85.3-.42.48-.88.51-1.4.01-.15-.02-.31.11-.43.09-.08.19-.13.31-.07.12.05.19.13.19.27.01.85-.27 1.59-.83 2.23-.12.14-.27.26-.4.4-.05.06-.12.08-.19.06-.21-.05-.44-.1-.69-.21" style="fill:#fff"/></svg>