<svg xmlns="http://www.w3.org/2000/svg" xml:space="preserve" x="0px" y="0px" viewBox="0 0 121 94"><radialGradient id="a" cx="86.2961" cy="21.1714" r="70.2559" gradientTransform="matrix(-1 0 0 -.7305 172.592 36.637)" gradientUnits="userSpaceOnUse"><stop offset="0" style="stop-color:#b6ccd2"/><stop offset="0.198" style="stop-color:#97b6be"/><stop offset="1" style="stop-color:#5d87b4"/></radialGradient><path d="M101.62 32.54c-.96-14.05-12.65-25.15-26.94-25.15S48.7 18.49 47.74 32.54c-10.64.53-19.11 9.32-19.11 20.1 0 11.12 9.01 20.12 20.12 20.12h51.86c11.11 0 20.12-9.01 20.12-20.12.01-10.78-8.46-19.57-19.11-20.1" style="fill:url(#a)"/><radialGradient id="b" cx="1006.4868" cy="-1669.1707" r="8.4764" gradientTransform="matrix(-.8392 1.1536 -1.6186 -1.3126 -1773.39 -3326.77)" gradientUnits="userSpaceOnUse"><stop offset="0" style="stop-color:#fff"/><stop offset="1" style="stop-color:#fff;stop-opacity:0"/></radialGradient><path d="M76.57 35.04c-7.58-6.15-10.53-15.5-6.61-20.9 3.93-5.4 13.26-4.79 20.83 1.35s10.53 15.51 6.6 20.9c-3.92 5.4-13.24 4.8-20.82-1.35" style="opacity:.6;fill:url(#b)"/><radialGradient id="c" cx="1007.0676" cy="-1684.094" r="6.6615" gradientTransform="matrix(-.8392 1.1536 -1.6186 -1.3126 -1773.39 -3326.77)" gradientUnits="userSpaceOnUse"><stop offset="0" style="stop-color:#fff"/><stop offset="1" style="stop-color:#fff;stop-opacity:0"/></radialGradient><path d="M101.76 53.21c-5.95-4.83-8.28-12.18-5.19-16.43 3.09-4.24 10.42-3.77 16.37 1.06s8.27 12.19 5.19 16.43-10.41 3.77-16.37-1.06" style="opacity:.4;fill:url(#c)"/><radialGradient id="d" cx="39.5614" cy="58.9204" r="4.8709" gradientTransform="matrix(.901 -.4338 1.2628 2.6229 -70.487 -78.462)" gradientUnits="userSpaceOnUse"><stop offset="0" style="stop-color:#fff"/><stop offset="1" style="stop-color:#fff;stop-opacity:0"/></radialGradient><path d="M43.01 53.88c-4.39-6.85-9.5-10.15-11.41-7.37-1.9 2.78.11 10.59 4.5 17.45 4.4 6.85 9.5 10.15 11.41 7.37 1.91-2.79-.1-10.59-4.5-17.45" style="opacity:.2;fill:url(#d)"/><radialGradient id="e" cx="57.9336" cy="35.0136" r="70.2574" gradientTransform="matrix(-1 0 0 -.7305 115.867 60.59)" gradientUnits="userSpaceOnUse"><stop offset="0" style="stop-color:#fff"/><stop offset="0.198" style="stop-color:#d5f3ff"/><stop offset="1" style="stop-color:#85bcf1"/></radialGradient><path d="M73.26 46.38c-.96-14.04-12.65-25.14-26.94-25.14s-25.98 11.1-26.94 25.15C8.73 46.91.26 55.71.26 66.48.26 77.6 9.27 86.6 20.38 86.6h51.86c11.11 0 20.12-9.01 20.12-20.12.01-10.77-8.46-19.57-19.1-20.1" style="fill:url(#e)"/><radialGradient id="f" cx="1027.4094" cy="-1661.3282" r="8.4765" gradientTransform="matrix(-.8392 1.1536 -1.6186 -1.3126 -1773.39 -3326.77)" gradientUnits="userSpaceOnUse"><stop offset="0" style="stop-color:#fff"/><stop offset="1" style="stop-color:#fff;stop-opacity:0"/></radialGradient><path d="M46.32 48.89c-7.57-6.15-10.53-15.5-6.61-20.9 3.93-5.4 13.26-4.8 20.84 1.35 7.57 6.15 10.53 15.51 6.6 20.9-3.93 5.4-13.25 4.79-20.83-1.35" style="fill:url(#f)"/><radialGradient id="g" cx="1027.1549" cy="-1676.9856" r="6.6614" gradientTransform="matrix(-.8392 1.1536 -1.6186 -1.3126 -1773.39 -3326.77)" gradientUnits="userSpaceOnUse"><stop offset="0" style="stop-color:#fff"/><stop offset="1" style="stop-color:#fff;stop-opacity:0"/></radialGradient><path d="M73.4 67.05c-5.95-4.83-8.28-12.19-5.19-16.43s10.42-3.77 16.38 1.06c5.95 4.83 8.27 12.19 5.19 16.43-3.1 4.25-10.43 3.77-16.38-1.06" style="opacity:.4;fill:url(#g)"/><radialGradient id="h" cx="11.1989" cy="72.7631" r="4.8711" gradientTransform="matrix(.901 -.4338 1.2628 2.6229 -90.774 -113.23)" gradientUnits="userSpaceOnUse"><stop offset="0" style="stop-color:#fff"/><stop offset="1" style="stop-color:#fff;stop-opacity:0"/></radialGradient><path d="M14.65 67.73c-4.39-6.85-9.5-10.15-11.41-7.37-1.9 2.78.11 10.59 4.5 17.45 4.4 6.85 9.5 10.15 11.41 7.37 1.91-2.79-.1-10.6-4.5-17.45" style="opacity:.2;fill:url(#h)"/></svg>