<svg xmlns="http://www.w3.org/2000/svg" xml:space="preserve" id="Capa_1" x="0px" y="0px" version="1.1" viewBox="0 0 24 24"><style>.st2{fill:#eb5d2c}</style><path d="m7.59 9.08-.01-.01h-.01c-.25 0-.49-.06-.74-.09-.03-.01-.07-.01-.1-.04.02-.15.13-.25.2-.37.37-.6.79-1.18 1.25-1.72.86-1.04 1.85-1.94 3.07-2.55.78-.39 1.6-.62 2.47-.63.28 0 .57.01.84.08.03.01.07.01.1.01.16.02.28.11.41.19.62.45 1.08 1.04 1.43 1.72.33.64.53 1.32.64 2.04.17 1.11.13 2.22-.04 3.32-.06.42-.15.83-.24 1.24-.06.28-.14.56-.22.83-.01.06-.02.12-.08.15h-.04c-.09-.05-.18-.1-.23-.2-.25-.19-.49-.39-.75-.56a.16.16 0 0 1-.07-.09l-.01-.01h-.01c-.2-.11-.39-.24-.56-.38-.06-.05-.13-.07-.19-.11-.14-.1-.29-.2-.43-.31-.18-.09-.37-.17-.52-.31-.12-.06-.25-.1-.34-.2l-.01-.01h-.01c-.21-.05-.38-.18-.55-.29-.25-.09-.49-.21-.73-.33-.11-.05-.22-.09-.33-.15-.19-.07-.38-.17-.58-.22-.01-.01-.03-.01-.04-.02-.2-.08-.4-.16-.61-.22-.02-.01-.04-.01-.07-.03-.07-.05-.15-.06-.23-.08-.37-.09-.74-.2-1.12-.3-.44-.12-.88-.21-1.33-.29-.07-.01-.14-.04-.21-.06" style="fill:#fdc62a"/><path d="M14.65 3.78c-.19-.02-.37-.06-.56-.07-.79-.06-1.55.08-2.29.37-.78.31-1.47.75-2.11 1.28-.81.68-1.5 1.47-2.12 2.32-.29.39-.54.79-.8 1.19-.01.02-.02.05-.03.07-.05.02-.07-.03-.1-.05-.09-.12-.19-.21-.27-.34l-.04-.04c-.1-.07-.18-.16-.26-.26-.2-.22-.42-.42-.65-.61-.23-.2-.47-.4-.74-.56-.02-.01-.05-.03-.06-.06-.05-.03-.1-.05-.14-.09-.23-.11-.46-.25-.68-.39a.4.4 0 0 1-.11-.07v-.01h-.01c-.2-.04-.36-.16-.55-.23-.24-.09-.47-.23-.72-.31-.03-.01-.07 0-.1-.01-.06-.03-.12-.03-.15-.09-.01-.05 0-.09.04-.11.16-.09.27-.25.44-.33.15-.18.36-.31.55-.45.08-.06.15-.14.25-.16.09-.11.22-.17.33-.25.5-.32 1.01-.61 1.55-.85.04-.02.08-.01.12-.03.07-.06.15-.1.25-.11.21-.12.45-.21.69-.25h.01c.19-.11.41-.15.62-.2.15-.04.3-.11.47-.09.02-.01.04-.02.06-.02.14-.06.29-.07.44-.08.19-.09.4-.06.59-.1.15-.03.3-.04.45-.02.19-.06.38-.06.57-.03.04.02.08 0 .12 0 .11-.05.23-.04.34-.02.29.04.59.01.88.05.25.03.49.08.73.12.19.03.39.05.58.08.17.03.33.08.49.12.08.02.16.04.25.04.49.15.99.3 1.46.51.07.04.17.04.21.14m1.9 9.46c.04-.02.04-.05.05-.08.15-.54.28-1.08.39-1.64.12-.63.2-1.27.22-1.92.03-.74-.01-1.47-.15-2.19s-.38-1.4-.75-2.03a4.5 4.5 0 0 0-1.25-1.41c.08-.05.14.02.21.04.16.1.34.16.49.27.21.08.41.16.57.32.02.02.06.01.07.04 0 .01.01.01.02.01.24.11.46.26.67.42.19.14.39.28.58.42s.36.3.54.45c.03.02.05.04.06.08.25.19.46.42.68.64q.51.525.93 1.11c.11.15.23.3.3.48.05.04.09.1.13.15.25.39.46.8.65 1.21.15.32.28.65.4.98.01.04.01.08.02.11.07.11.1.22.11.35.09.14.09.31.15.47.03.08.06.18.04.27-.01.02-.01.04.01.05.09.13.09.28.09.43v.02c.08.14.07.3.08.45.06.09.04.19.05.28.03.2.06.4.07.6 0 .05 0 .1-.01.15.05.24.04.49.04.74-.08.08-.13-.03-.2-.03-.28-.22-.63-.31-.95-.46-.18-.08-.37-.15-.56-.21a.15.15 0 0 1-.09-.06.5.5 0 0 1-.11-.04c-.2-.07-.4-.13-.6-.17-.05-.01-.11-.03-.16-.04-.12.03-.24-.02-.36-.04-.29-.05-.57-.09-.86-.15-.09.02-.17-.02-.26-.02-.17.04-.33.01-.5 0-.23-.01-.45.01-.67.02-.06-.01-.13.02-.14-.07" class="st2"/><path d="M11.79 10.28c.12.04.23.08.33.15.03.1-.04.16-.09.23-.01.01-.01.03-.02.04-.03.03-.02.09-.06.12-.01.01-.01.03-.02.04-.03.04-.02.09-.06.13-.01.01-.01.03-.02.04-.02.03-.01.07-.05.1-.01.02-.02.05-.03.07-.16.4-.35.8-.52 1.19-.09.21-.18.43-.29.64-.04.05-.02.12-.07.17-.03.05-.03.12-.07.17-.04.11-.09.23-.15.33h-.01v.01c-.04.04-.02.11-.07.15-.01 0-.01.01-.01.02-.04.05-.03.12-.08.17-.04.03-.02.09-.06.12-.01.02-.01.04-.02.06-.04.04-.02.11-.07.15l-.01.01v.01c-.03.04-.02.09-.06.13-.01.01-.01.03-.02.04-.03.04-.01.1-.06.13-.01.01-.01.03-.02.04-.03.03-.02.09-.06.12-.01.01-.01.03-.02.04-.03.03-.02.09-.06.12-.01.01-.01.03-.02.04-.04.03-.02.09-.06.12-.01.02-.01.03-.02.05-.12.3-.26.59-.39.88-.11.25-.22.5-.33.76-.08.19-.16.38-.25.56-.04.05-.02.12-.07.17-.04.04-.01.11-.06.14-.01 0-.01.01-.01.02-.05.06-.02.14-.08.19-.04.04-.02.11-.06.14-.01 0-.01.01-.01.02-.04.04-.02.11-.07.15-.01 0-.01.01-.01.02-.03.03-.02.09-.06.12-.01.01-.01.03-.02.04-.03.03-.02.09-.06.12-.01.02-.02.04-.02.06-.02.03-.01.08-.05.1-.01.02-.02.05-.03.07-.03.04-.02.08-.05.12-.05.06-.07.13-.09.21-.04.04-.02.11-.07.15-.01 0-.01.01-.01.02-.05.09-.03.22-.13.29-.01-.08-.13-.13-.23-.21-.01-.05.01-.09.05-.12.05-.11.09-.22.15-.33.05-.05.02-.12.07-.17l.01-.01v-.01c.04-.05.01-.13.08-.17.04-.04.02-.1.06-.14.01 0 .01-.01.01-.02.04-.04.02-.11.07-.15 0-.01.01-.02.01-.04.03-.04.02-.09.06-.13.01-.01.01-.03.02-.04.04-.03.02-.09.06-.12.01-.01.01-.03.02-.04.03-.03.01-.09.06-.12.01-.01.01-.03.02-.04.04-.04.02-.11.06-.15l.09-.21c.14-.35.31-.69.45-1.03.11-.26.24-.5.33-.76.03-.07.06-.15.11-.22.04-.05.02-.12.07-.17.03-.05.03-.12.07-.17s.02-.12.07-.17.02-.12.07-.17h.01v-.01c.04-.04.02-.11.07-.15.01 0 .01-.01.01-.02.04-.04.02-.11.07-.15.01 0 .01-.01.01-.02.03-.03.02-.09.06-.12.03-.08.06-.15.1-.23.02-.04.02-.09.06-.12.01-.02.01-.03.02-.05.03-.03.04-.07.04-.12 0-.02.01-.04.02-.05.02-.04.04-.08.05-.12.01-.02.01-.04.02-.05.04-.09.08-.17.12-.27.01-.02.02-.04.03-.05.03-.04.04-.1.06-.15 0-.01.01-.03.02-.04.16-.21.2-.49.32-.72.17-.31.25-.65.44-.95.06-.09.07-.21.11-.32.1-.22.2-.44.29-.66-.04.01-.02-.01.01-.02" style="fill:#999"/><path d="M14.73 3.67c.07-.16.14-.31.21-.47.1-.12.2-.12.28.01l.03.06c.02.05.04.1-.01.15-.07.13-.1.29-.19.41-.13-.01-.25-.05-.32-.16" style="fill:#464a4c"/><path d="M2 6.04c.01-.11.09-.18.17-.25.02.07.1.05.14.08-.04.05-.08.09-.11.14-.05.08-.1.09-.18.04l-.01-.01z" style="fill:#be4c46"/><path d="M15.06 3.81c.04.06.12.05.18.08.04.04.03.09.01.13-.07-.01-.12-.06-.19-.06-.13-.08-.26-.16-.42-.19-.06-.05-.15-.07-.22-.1.04-.11.1-.12.19-.06.03.02.08.03.11.04.11.08.22.13.34.16" style="fill:#bf4d47"/><path d="M6.81 8.96c-.04.05-.08.1-.12.16-.05.06-.09.04-.13.01-.06-.05-.04-.09 0-.13.03-.04.07-.08.1-.13.03.02.06.05.09.07.01.01.04.01.06.02" style="fill:#c0534c"/><path d="M16.67 13.27c-.01.05-.03.1-.03.16 0 .05-.01.09-.06.08s-.11 0-.1-.09c.01-.07.02-.13.04-.19.01.01.02.01.03.02.03.04.08.02.12.02" style="fill:#af3b38"/><path d="M21.99 14.51c0 .07-.04.13-.03.21.01.04-.03.07-.08.05-.03-.01-.09 0-.09-.07 0-.08.01-.16.04-.23.07-.02.1.07.16.04" style="fill:#a1312e"/><path d="M5.55 19.25c.03.03.06.05.08.08.05.11.03.21 0 .32-.08.27-.05.53.12.77.18.31.62.45.98.31.29-.1.45-.33.6-.57.12-.2.21-.42.3-.63.03-.07.08-.12.15-.14.13.01.24.06.32.16.02.06.03.12 0 .18-.16.35-.31.7-.55 1-.15.19-.34.34-.55.46-.1.03-.19.06-.29.1-.21.02-.42.03-.63-.03a1.28 1.28 0 0 1-.91-.78c-.01-.02-.02-.04-.03-.05-.04-.15-.07-.29-.09-.44.01-.17.02-.34.08-.51.09-.24.19-.3.42-.23" class="st2"/><path d="M13.96 15.01a.593.593 0 0 1-.49-1.07l.83-.42.1.92c-.01.26-.19.49-.44.57m-8.28 1.26a.593.593 0 0 1-.49-1.07l.83-.42.1.92c-.01.26-.18.49-.44.57m-1.41-5.33a.593.593 0 0 1-.49-1.07l.82-.43.1.92c0 .27-.18.5-.43.58m11.78 7.87a.593.593 0 0 1-.49-1.07l.83-.42.1.92c-.01.26-.19.5-.44.57m4.01-2.54a.593.593 0 0 1-.49-1.07l.83-.42.1.92c-.01.26-.18.49-.44.57" style="fill:#7dcdeb"/></svg>