<svg xmlns="http://www.w3.org/2000/svg" xml:space="preserve" x="0px" y="0px" viewBox="0 0 121 94"><radialGradient id="a" cx="72.1146" cy="13.6595" r="70.2558" gradientTransform="matrix(-1 0 0 -.7305 144.23 23.638)" gradientUnits="userSpaceOnUse"><stop offset="0" style="stop-color:#fff"/><stop offset="0.198" style="stop-color:#d5f3ff"/><stop offset="1" style="stop-color:#85bcf1"/></radialGradient><path d="M87.44 25.03C86.48 10.98 74.79-.12 60.5-.12s-25.98 11.1-26.94 25.15c-10.65.53-19.11 9.32-19.11 20.1 0 11.11 9.01 20.12 20.12 20.12h51.86c11.11 0 20.12-9.01 20.12-20.12 0-10.78-8.46-19.58-19.11-20.1" style="fill:url(#a)"/><radialGradient id="b" cx="1259.7903" cy="-1742.2449" r="8.476" gradientTransform="matrix(-.8392 1.1536 -1.6186 -1.3126 -1695.167 -3722.412)" gradientUnits="userSpaceOnUse"><stop offset="0" style="stop-color:#fff"/><stop offset="1" style="stop-color:#fff;stop-opacity:0"/></radialGradient><path d="M60.5 27.53c-7.58-6.15-10.53-15.5-6.61-20.9 3.93-5.4 13.26-4.79 20.84 1.35 7.57 6.14 10.53 15.51 6.6 20.9-3.93 5.4-13.25 4.79-20.83-1.35" style="fill:url(#b)"/><radialGradient id="c" cx="1259.5355" cy="-1757.9031" r="6.6615" gradientTransform="matrix(-.8392 1.1536 -1.6186 -1.3126 -1695.167 -3722.412)" gradientUnits="userSpaceOnUse"><stop offset="0" style="stop-color:#fff"/><stop offset="1" style="stop-color:#fff;stop-opacity:0"/></radialGradient><path d="M87.58 45.7c-5.95-4.83-8.28-12.19-5.19-16.43 3.09-4.25 10.42-3.77 16.38 1.06 5.95 4.83 8.27 12.19 5.19 16.43-3.1 4.24-10.43 3.77-16.38-1.06" style="opacity:.4;fill:url(#c)"/><radialGradient id="d" cx="25.3799" cy="51.4083" r="4.8709" gradientTransform="matrix(.901 -.4338 1.2628 2.6229 -62.404 -72.422)" gradientUnits="userSpaceOnUse"><stop offset="0" style="stop-color:#fff"/><stop offset="1" style="stop-color:#fff;stop-opacity:0"/></radialGradient><path d="M28.83 46.37c-4.39-6.85-9.5-10.15-11.41-7.37-1.9 2.78.11 10.59 4.5 17.44 4.4 6.85 9.5 10.15 11.41 7.37s-.1-10.58-4.5-17.44" style="opacity:.2;fill:url(#d)"/><radialGradient id="e" cx="-255.6504" cy="71.0112" r="9.8909" gradientTransform="rotate(30 -122.118 611.575)" gradientUnits="userSpaceOnUse"><stop offset="0" style="stop-color:#d0f2ff"/><stop offset="0.198" style="stop-color:#d5f3ff"/><stop offset="1" style="stop-color:#85bcf1"/></radialGradient><path d="M38.03 77.62a4.107 4.107 0 0 1-5.62 1.5 4.105 4.105 0 0 1-1.5-5.62c1.14-1.97 8.16-5.91 8.16-5.91s.09 8.06-1.04 10.03" style="fill:url(#e)"/><radialGradient id="f" cx="1431.3784" cy="-1631.4384" r="1.5492" gradientTransform="matrix(-1.3036 .5794 -.7454 -1.946 682.918 -3928.084)" gradientUnits="userSpaceOnUse"><stop offset="0" style="stop-color:#fff"/><stop offset="1" style="stop-color:#fff;stop-opacity:0"/></radialGradient><path d="M31.03 76.93c-.64-1.66-.25-3.42.87-3.91 1.12-.5 2.54.45 3.17 2.12.64 1.67.25 3.42-.86 3.91-1.12.5-2.55-.45-3.18-2.12" style="fill:url(#f)"/><radialGradient id="g" cx="-240.7608" cy="62.4146" r="9.8909" gradientTransform="rotate(30 -122.118 611.575)" gradientUnits="userSpaceOnUse"><stop offset="0" style="stop-color:#d0f2ff"/><stop offset="0.198" style="stop-color:#d5f3ff"/><stop offset="1" style="stop-color:#85bcf1"/></radialGradient><path d="M55.22 77.62a4.107 4.107 0 0 1-5.62 1.5 4.105 4.105 0 0 1-1.5-5.62c1.14-1.97 8.16-5.91 8.16-5.91s.1 8.06-1.04 10.03" style="fill:url(#g)"/><radialGradient id="h" cx="1420.1084" cy="-1634.7939" r="1.5492" gradientTransform="matrix(-1.3036 .5794 -.7454 -1.946 682.918 -3928.084)" gradientUnits="userSpaceOnUse"><stop offset="0" style="stop-color:#fff"/><stop offset="1" style="stop-color:#fff;stop-opacity:0"/></radialGradient><path d="M48.22 76.93c-.64-1.66-.25-3.42.87-3.91 1.12-.5 2.54.45 3.17 2.12.64 1.67.25 3.42-.87 3.91-1.11.5-2.53-.45-3.17-2.12" style="fill:url(#h)"/><radialGradient id="i" cx="-225.8709" cy="53.8176" r="9.8913" gradientTransform="rotate(30 -122.118 611.575)" gradientUnits="userSpaceOnUse"><stop offset="0" style="stop-color:#d0f2ff"/><stop offset="0.198" style="stop-color:#d5f3ff"/><stop offset="1" style="stop-color:#85bcf1"/></radialGradient><path d="M72.41 77.62a4.107 4.107 0 0 1-5.62 1.5 4.105 4.105 0 0 1-1.5-5.62c1.14-1.97 8.16-5.91 8.16-5.91s.1 8.06-1.04 10.03" style="fill:url(#i)"/><radialGradient id="j" cx="1408.8383" cy="-1638.1494" r="1.5492" gradientTransform="matrix(-1.3036 .5794 -.7454 -1.946 682.918 -3928.084)" gradientUnits="userSpaceOnUse"><stop offset="0" style="stop-color:#fff"/><stop offset="1" style="stop-color:#fff;stop-opacity:0"/></radialGradient><path d="M65.41 76.93c-.64-1.66-.25-3.42.87-3.91 1.12-.5 2.54.45 3.17 2.12.64 1.67.25 3.42-.86 3.91-1.12.5-2.54-.45-3.18-2.12" style="fill:url(#j)"/><radialGradient id="k" cx="-210.9814" cy="45.221" r="9.8909" gradientTransform="rotate(30 -122.118 611.575)" gradientUnits="userSpaceOnUse"><stop offset="0" style="stop-color:#d0f2ff"/><stop offset="0.198" style="stop-color:#d5f3ff"/><stop offset="1" style="stop-color:#85bcf1"/></radialGradient><path d="M89.61 77.62a4.107 4.107 0 0 1-5.62 1.5 4.105 4.105 0 0 1-1.5-5.62c1.14-1.97 8.16-5.91 8.16-5.91s.09 8.06-1.04 10.03" style="fill:url(#k)"/><radialGradient id="l" cx="1397.5682" cy="-1641.505" r="1.5492" gradientTransform="matrix(-1.3036 .5794 -.7454 -1.946 682.918 -3928.084)" gradientUnits="userSpaceOnUse"><stop offset="0" style="stop-color:#fff"/><stop offset="1" style="stop-color:#fff;stop-opacity:0"/></radialGradient><path d="M82.61 76.93c-.64-1.66-.25-3.42.87-3.91 1.12-.5 2.54.45 3.17 2.12.64 1.67.25 3.42-.87 3.91-1.12.5-2.54-.45-3.17-2.12" style="fill:url(#l)"/><radialGradient id="m" cx="-240.9824" cy="79.2231" r="9.8909" gradientTransform="rotate(30 -122.118 611.575)" gradientUnits="userSpaceOnUse"><stop offset="0" style="stop-color:#d0f2ff"/><stop offset="0.198" style="stop-color:#d5f3ff"/><stop offset="1" style="stop-color:#85bcf1"/></radialGradient><path d="M46.62 92.06a4.116 4.116 0 0 1-5.62 1.5 4.105 4.105 0 0 1-1.5-5.62c1.13-1.97 8.16-5.91 8.16-5.91s.1 8.07-1.04 10.03" style="fill:url(#m)"/><radialGradient id="n" cx="1429.3706" cy="-1639.4594" r="1.5492" gradientTransform="matrix(-1.3036 .5794 -.7454 -1.946 682.918 -3928.084)" gradientUnits="userSpaceOnUse"><stop offset="0" style="stop-color:#fff"/><stop offset="1" style="stop-color:#fff;stop-opacity:0"/></radialGradient><path d="M39.62 91.38c-.64-1.66-.25-3.42.87-3.91 1.11-.5 2.54.45 3.17 2.12.64 1.66.25 3.42-.86 3.91-1.12.49-2.54-.46-3.18-2.12" style="fill:url(#n)"/><radialGradient id="o" cx="-226.0927" cy="70.6262" r="9.891" gradientTransform="rotate(30 -122.118 611.575)" gradientUnits="userSpaceOnUse"><stop offset="0" style="stop-color:#d0f2ff"/><stop offset="0.198" style="stop-color:#d5f3ff"/><stop offset="1" style="stop-color:#85bcf1"/></radialGradient><path d="M63.82 92.06a4.116 4.116 0 0 1-5.62 1.5 4.105 4.105 0 0 1-1.5-5.62c1.14-1.97 8.16-5.91 8.16-5.91s.09 8.07-1.04 10.03" style="fill:url(#o)"/><radialGradient id="p" cx="1418.1002" cy="-1642.8149" r="1.5493" gradientTransform="matrix(-1.3036 .5794 -.7454 -1.946 682.918 -3928.084)" gradientUnits="userSpaceOnUse"><stop offset="0" style="stop-color:#fff"/><stop offset="1" style="stop-color:#fff;stop-opacity:0"/></radialGradient><path d="M56.82 91.38c-.64-1.66-.25-3.42.87-3.91 1.12-.5 2.54.45 3.17 2.12.64 1.66.25 3.42-.86 3.91-1.12.49-2.55-.46-3.18-2.12" style="fill:url(#p)"/><radialGradient id="q" cx="-211.203" cy="62.0295" r="9.8909" gradientTransform="rotate(30 -122.118 611.575)" gradientUnits="userSpaceOnUse"><stop offset="0" style="stop-color:#d0f2ff"/><stop offset="0.198" style="stop-color:#d5f3ff"/><stop offset="1" style="stop-color:#85bcf1"/></radialGradient><path d="M81.01 92.06a4.116 4.116 0 0 1-5.62 1.5 4.105 4.105 0 0 1-1.5-5.62c1.14-1.97 8.16-5.91 8.16-5.91s.1 8.07-1.04 10.03" style="fill:url(#q)"/><radialGradient id="r" cx="1406.8303" cy="-1646.1704" r="1.5493" gradientTransform="matrix(-1.3036 .5794 -.7454 -1.946 682.918 -3928.084)" gradientUnits="userSpaceOnUse"><stop offset="0" style="stop-color:#fff"/><stop offset="1" style="stop-color:#fff;stop-opacity:0"/></radialGradient><path d="M74.01 91.38c-.64-1.66-.25-3.42.87-3.91 1.12-.5 2.54.45 3.17 2.12.64 1.66.25 3.42-.87 3.91-1.11.49-2.53-.46-3.17-2.12" style="fill:url(#r)"/></svg>