<svg xmlns="http://www.w3.org/2000/svg" xml:space="preserve" x="0px" y="0px" viewBox="0 0 121 94"><radialGradient id="a" cx="72.1146" cy="20.8819" r="70.2558" gradientTransform="matrix(-1 0 0 -.7305 144.23 36.136)" gradientUnits="userSpaceOnUse"><stop offset="0" style="stop-color:#fff"/><stop offset="0.198" style="stop-color:#d5f3ff"/><stop offset="1" style="stop-color:#85bcf1"/></radialGradient><path d="M87.44 32.25C86.48 18.2 74.79 7.11 60.5 7.11s-25.98 11.1-26.94 25.15c-10.65.53-19.11 9.32-19.11 20.1 0 11.11 9.01 20.12 20.12 20.12h51.86c11.11 0 20.12-9.01 20.12-20.12 0-10.79-8.46-19.58-19.11-20.11" style="fill:url(#a)"/><radialGradient id="b" cx="1633.14" cy="-2117.4651" r="8.476" gradientTransform="matrix(-.8392 1.1536 -1.6186 -1.3126 -1989.184 -4638.4)" gradientUnits="userSpaceOnUse"><stop offset="0" style="stop-color:#fff"/><stop offset="1" style="stop-color:#fff;stop-opacity:0"/></radialGradient><path d="M60.5 34.75c-7.58-6.15-10.53-15.5-6.61-20.9 3.93-5.4 13.26-4.79 20.83 1.35s10.53 15.51 6.6 20.9c-3.92 5.4-13.24 4.8-20.82-1.35" style="fill:url(#b)"/><radialGradient id="c" cx="1632.8851" cy="-2133.1233" r="6.6615" gradientTransform="matrix(-.8392 1.1536 -1.6186 -1.3126 -1989.184 -4638.4)" gradientUnits="userSpaceOnUse"><stop offset="0" style="stop-color:#fff"/><stop offset="1" style="stop-color:#fff;stop-opacity:0"/></radialGradient><path d="M87.58 52.92c-5.95-4.83-8.28-12.19-5.19-16.43 3.09-4.25 10.42-3.77 16.37 1.06s8.27 12.19 5.19 16.43c-3.09 4.24-10.42 3.77-16.37-1.06" style="opacity:.4;fill:url(#c)"/><radialGradient id="d" cx="25.3798" cy="58.6307" r="4.8709" gradientTransform="matrix(.901 -.4338 1.2628 2.6229 -71.525 -84.144)" gradientUnits="userSpaceOnUse"><stop offset="0" style="stop-color:#fff"/><stop offset="1" style="stop-color:#fff;stop-opacity:0"/></radialGradient><path d="M28.83 53.59c-4.39-6.85-9.5-10.15-11.41-7.37-1.9 2.78.11 10.59 4.5 17.44 4.4 6.85 9.5 10.15 11.41 7.37s-.1-10.58-4.5-17.44" style="opacity:.2;fill:url(#d)"/><radialGradient id="e" cx="38.1733" cy="78.4499" r="10.2962" gradientUnits="userSpaceOnUse"><stop offset="0" style="stop-color:#d0f2ff"/><stop offset="0.198" style="stop-color:#d5f3ff"/><stop offset="1" style="stop-color:#85bcf1"/></radialGradient><path d="m39.73 83.1-1.1-.64.34-.2c.27-.16.36-.5.21-.77a.57.57 0 0 0-.77-.21l-.91.52-.84-.48a1.84 1.84 0 0 0 0-.94l.84-.48.91.52a.554.554 0 0 0 .77-.2.56.56 0 0 0-.21-.77l-.34-.2 1.1-.64c.27-.16.36-.5.21-.77a.57.57 0 0 0-.77-.21l-1.1.64v-.39a.57.57 0 1 0-1.14 0v1.05l-.84.48c-.23-.22-.5-.38-.81-.47v-.97l.91-.52c.27-.16.36-.5.21-.77a.57.57 0 0 0-.77-.21l-.34.2V75.4a.57.57 0 1 0-1.14 0v1.27l-.34-.2a.56.56 0 0 0-.77.21.56.56 0 0 0 .21.77l.91.52v.97c-.31.09-.58.25-.81.47l-.84-.48v-1.05a.57.57 0 1 0-1.14 0v.39l-1.1-.64a.56.56 0 0 0-.77.21.56.56 0 0 0 .21.77l1.1.64-.34.2a.57.57 0 0 0-.21.77c.1.18.3.28.49.28.1 0 .19-.02.28-.08l.91-.52.84.48a1.84 1.84 0 0 0 0 .94l-.84.48-.91-.52a.56.56 0 0 0-.77.21.56.56 0 0 0 .21.77l.34.2-1.1.64a.57.57 0 0 0-.21.77c.1.18.3.28.49.28.1 0 .19-.02.28-.08l1.1-.64v.39a.57.57 0 1 0 1.14 0v-1.05l.84-.48c.23.22.5.38.81.47v.97l-.91.52a.57.57 0 0 0-.21.77c.16.27.5.36.77.21l.34-.2v1.28c0 .31.25.57.57.57s.57-.25.57-.57v-1.27l.34.2a.554.554 0 0 0 .77-.2.56.56 0 0 0-.21-.77l-.91-.52v-.97c.31-.09.58-.25.81-.47l.84.48v1.05a.57.57 0 1 0 1.14 0v-.39l1.1.64a.554.554 0 0 0 .77-.2c.15-.28.06-.63-.21-.79m-5.02-1.37a.87.87 0 1 1 .001-1.741.87.87 0 0 1-.001 1.741" style="fill:url(#e)"/><radialGradient id="f" cx="55.366" cy="78.4499" r="10.2962" gradientUnits="userSpaceOnUse"><stop offset="0" style="stop-color:#d0f2ff"/><stop offset="0.198" style="stop-color:#d5f3ff"/><stop offset="1" style="stop-color:#85bcf1"/></radialGradient><path d="m56.92 83.1-1.1-.64.34-.2c.27-.16.36-.5.21-.77a.57.57 0 0 0-.77-.21l-.91.52-.84-.48a1.84 1.84 0 0 0 0-.94l.84-.48.91.52a.554.554 0 0 0 .77-.2.56.56 0 0 0-.21-.77l-.34-.2 1.1-.64c.27-.16.36-.5.21-.77a.57.57 0 0 0-.77-.21l-1.1.64v-.39a.57.57 0 1 0-1.14 0v1.05l-.84.48c-.23-.22-.5-.38-.81-.47v-.97l.91-.52c.27-.16.36-.5.21-.77a.57.57 0 0 0-.77-.21l-.34.2V75.4a.57.57 0 1 0-1.14 0v1.27l-.34-.2a.56.56 0 0 0-.77.21.56.56 0 0 0 .21.77l.91.52v.97c-.31.09-.58.25-.81.47l-.84-.48v-1.05a.57.57 0 1 0-1.14 0v.39l-1.1-.64a.56.56 0 0 0-.77.21.56.56 0 0 0 .21.77l1.1.64-.34.2a.57.57 0 0 0-.21.77c.1.18.3.28.49.28.1 0 .19-.02.28-.08l.91-.52.84.48a1.84 1.84 0 0 0 0 .94l-.84.48-.91-.52a.56.56 0 0 0-.77.21.56.56 0 0 0 .21.77l.34.2-1.1.64a.57.57 0 0 0-.21.77c.1.18.3.28.49.28.1 0 .19-.02.28-.08l1.1-.64v.39a.57.57 0 1 0 1.14 0v-1.05l.84-.48c.23.22.5.38.81.47v.97l-.91.52a.57.57 0 0 0-.21.77c.16.27.5.36.77.21l.34-.2v1.28c0 .31.25.57.57.57s.57-.25.57-.57v-1.27l.34.2a.554.554 0 0 0 .77-.2.56.56 0 0 0-.21-.77l-.91-.52v-.97c.31-.09.58-.25.81-.47l.84.48v1.05a.57.57 0 1 0 1.14 0v-.39l1.1.64a.554.554 0 0 0 .77-.2c.16-.28.06-.63-.21-.79m-5.02-1.37a.87.87 0 1 1 .001-1.741.87.87 0 0 1-.001 1.741" style="fill:url(#f)"/><radialGradient id="g" cx="72.559" cy="78.4499" r="10.2962" gradientUnits="userSpaceOnUse"><stop offset="0" style="stop-color:#d0f2ff"/><stop offset="0.198" style="stop-color:#d5f3ff"/><stop offset="1" style="stop-color:#85bcf1"/></radialGradient><path d="m74.12 83.1-1.1-.64.34-.2c.27-.16.36-.5.21-.77a.57.57 0 0 0-.77-.21l-.91.52-.84-.48a1.84 1.84 0 0 0 0-.94l.84-.48.91.52a.554.554 0 0 0 .77-.2.56.56 0 0 0-.21-.77l-.34-.2 1.1-.64c.27-.16.36-.5.21-.77a.57.57 0 0 0-.77-.21l-1.1.64v-.39a.57.57 0 1 0-1.14 0v1.05l-.84.48c-.23-.22-.5-.38-.81-.47v-.97l.91-.52c.27-.16.36-.5.21-.77a.57.57 0 0 0-.77-.21l-.34.2V75.4a.57.57 0 1 0-1.14 0v1.27l-.34-.2a.56.56 0 0 0-.77.21.56.56 0 0 0 .21.77l.91.52v.97c-.31.09-.58.25-.81.47l-.84-.48v-1.05a.57.57 0 1 0-1.14 0v.39l-1.1-.64a.56.56 0 0 0-.77.21.56.56 0 0 0 .21.77l1.1.64-.34.2a.57.57 0 0 0-.21.77c.1.18.3.28.49.28.1 0 .19-.02.28-.08l.91-.52.84.48a1.84 1.84 0 0 0 0 .94l-.84.48-.91-.52a.56.56 0 0 0-.77.21.56.56 0 0 0 .21.77l.34.2-1.1.64a.57.57 0 0 0-.21.77c.1.18.3.28.49.28.1 0 .19-.02.28-.08l1.1-.64v.39a.57.57 0 1 0 1.14 0v-1.05l.84-.48c.23.22.5.38.81.47v.97l-.91.52a.57.57 0 0 0-.21.77c.16.27.5.36.77.21l.34-.2v1.28a.57.57 0 1 0 1.14 0v-1.27l.34.2a.554.554 0 0 0 .77-.2.56.56 0 0 0-.21-.77l-.91-.52v-.97c.31-.09.58-.25.81-.47l.84.48v1.05a.57.57 0 1 0 1.14 0v-.39l1.1.64a.554.554 0 0 0 .77-.2c.15-.28.06-.63-.21-.79m-5.02-1.37a.87.87 0 1 1 .87-.87c-.01.48-.39.87-.87.87" style="fill:url(#g)"/><radialGradient id="h" cx="89.7519" cy="78.4499" r="10.2962" gradientUnits="userSpaceOnUse"><stop offset="0" style="stop-color:#d0f2ff"/><stop offset="0.198" style="stop-color:#d5f3ff"/><stop offset="1" style="stop-color:#85bcf1"/></radialGradient><path d="m91.31 83.1-1.1-.64.34-.2c.27-.16.36-.5.21-.77a.57.57 0 0 0-.77-.21l-.91.52-.84-.48a1.84 1.84 0 0 0 0-.94l.84-.48.91.52a.554.554 0 0 0 .77-.2.56.56 0 0 0-.21-.77l-.34-.2 1.1-.64c.27-.16.36-.5.21-.77a.57.57 0 0 0-.77-.21l-1.1.64v-.39a.57.57 0 1 0-1.14 0v1.05l-.84.48c-.23-.22-.5-.38-.81-.47v-.97l.91-.52c.27-.16.36-.5.21-.77a.57.57 0 0 0-.77-.21l-.34.2V75.4a.57.57 0 1 0-1.14 0v1.27l-.34-.2a.56.56 0 0 0-.77.21.56.56 0 0 0 .21.77l.91.52v.97c-.31.09-.58.25-.81.47l-.84-.48v-1.05a.57.57 0 1 0-1.14 0v.39l-1.1-.64a.56.56 0 0 0-.77.21.56.56 0 0 0 .21.77l1.1.64-.34.2a.57.57 0 0 0-.21.77c.1.18.3.28.49.28.1 0 .19-.02.28-.08l.91-.52.84.48a1.84 1.84 0 0 0 0 .94l-.84.48-.91-.52a.56.56 0 0 0-.77.21.56.56 0 0 0 .21.77l.34.2-1.1.64a.57.57 0 0 0-.21.77c.1.18.3.28.49.28.1 0 .19-.02.28-.08l1.1-.64v.39a.57.57 0 1 0 1.14 0v-1.05l.84-.48c.23.22.5.38.81.47v.97l-.91.52a.57.57 0 0 0-.21.77c.16.27.5.36.77.21l.34-.2v1.28a.57.57 0 1 0 1.14 0v-1.27l.34.2a.554.554 0 0 0 .77-.2.56.56 0 0 0-.21-.77l-.91-.52v-.97c.31-.09.58-.25.81-.47l.84.48v1.05a.57.57 0 1 0 1.14 0v-.39l1.1.64a.554.554 0 0 0 .77-.2c.15-.28.06-.63-.21-.79m-5.02-1.37a.87.87 0 1 1 .001-1.741.87.87 0 0 1-.001 1.741" style="fill:url(#h)"/></svg>