<svg xmlns="http://www.w3.org/2000/svg" xml:space="preserve" x="0px" y="0px" viewBox="0 0 121 94"><style>.st184{fill:#a3aad2}</style><g id="OBJECTS"><radialGradient id="SVGID_1_" cx="86.701" cy="60.1285" r="37.0698" gradientUnits="userSpaceOnUse"><stop offset="0" style="stop-color:#28cbe9"/><stop offset="1" style="stop-color:#0a4fbb"/></radialGradient><path d="m92.31 76.88-3.98-2.29 1.23-.71c.98-.56 1.31-1.81.75-2.79a2.05 2.05 0 0 0-2.79-.75l-3.27 1.89-3.02-1.74c.13-.54.21-1.1.21-1.69 0-.58-.08-1.14-.21-1.68l3.02-1.74 3.27 1.89c.32.19.67.28 1.02.28.71 0 1.39-.37 1.77-1.02.56-.98.23-2.22-.75-2.79l-1.23-.71 3.98-2.29a2.042 2.042 0 1 0-2.04-3.54l-3.97 2.29v-1.42c0-1.13-.92-2.04-2.04-2.04-1.13 0-2.04.91-2.04 2.04v3.78L79.2 63.6a7.2 7.2 0 0 0-2.92-1.69v-3.48l3.27-1.89A2.042 2.042 0 1 0 77.51 53l-1.23.71v-4.59c0-1.13-.91-2.04-2.04-2.04s-2.04.91-2.04 2.04v4.59L70.97 53c-.97-.56-2.22-.23-2.79.75-.56.97-.23 2.22.75 2.79l3.27 1.89v3.48c-1.11.33-2.1.91-2.92 1.69l-3.02-1.75v-3.78c0-1.13-.91-2.04-2.04-2.04s-2.04.91-2.04 2.04v1.42l-3.97-2.29c-.98-.56-2.22-.23-2.79.75-.56.97-.23 2.22.75 2.79l3.97 2.29-1.23.71c-.97.56-1.31 1.81-.75 2.79a2.047 2.047 0 0 0 2.79.75l3.27-1.89 3.02 1.74c-.13.54-.21 1.1-.21 1.68s.08 1.14.21 1.69l-3.02 1.74-3.27-1.89c-.98-.57-2.22-.23-2.79.75-.56.97-.23 2.22.75 2.79l1.23.71-3.98 2.29a2.042 2.042 0 1 0 2.04 3.54l3.97-2.29v1.42c0 1.13.91 2.04 2.04 2.04s2.04-.91 2.04-2.04v-3.78l3.02-1.75c.82.78 1.81 1.36 2.91 1.69v3.49l-3.27 1.89a2.042 2.042 0 1 0 2.04 3.54l1.23-.71v4.59c0 1.13.91 2.04 2.04 2.04s2.04-.91 2.04-2.04V83.9l1.23.71c.32.19.67.28 1.02.28.71 0 1.39-.37 1.77-1.02.56-.97.23-2.22-.75-2.79l-3.27-1.89V75.7c1.11-.33 2.1-.91 2.92-1.69l3.02 1.74v3.78c0 1.13.91 2.04 2.04 2.04s2.04-.91 2.04-2.04v-1.42l3.97 2.3c.32.19.67.27 1.02.27.71 0 1.39-.37 1.77-1.02.58-.97.25-2.22-.73-2.78m-18.08-4.96c-1.72 0-3.12-1.4-3.12-3.12s1.4-3.12 3.12-3.12 3.12 1.4 3.12 3.12a3.11 3.11 0 0 1-3.12 3.12" style="fill:url(#SVGID_1_)"/><linearGradient id="SVGID_00000158023862475894783730000005957925725182973108_" x1="27.6698" x2="66.8265" y1="47" y2="47" gradientUnits="userSpaceOnUse"><stop offset="0" style="stop-color:#dbe1ff"/><stop offset="1" style="stop-color:#cbd1e9"/></linearGradient><path d="M66.83 82.81c0 4.27-3.46 7.72-7.72 7.72H35.39c-4.26 0-7.72-3.46-7.72-7.72V11.19c0-4.27 3.46-7.72 7.72-7.72H59.1c4.27 0 7.72 3.46 7.72 7.72v71.62z" style="fill:url(#SVGID_00000158023862475894783730000005957925725182973108_)"/><path d="M43.42 71.47a3.83 3.83 0 0 0 7.66 0V18.29a3.83 3.83 0 0 0-7.66 0z" class="st184"/><linearGradient id="SVGID_00000136396756092762145300000015198856307771191460_" x1="47.2489" x2="47.2489" y1="56.1259" y2="65.3154" gradientUnits="userSpaceOnUse"><stop offset="0" style="stop-color:#28cbe9"/><stop offset="1" style="stop-color:#0a4fbb"/></linearGradient><path d="M43.42 71.47a3.83 3.83 0 0 0 7.66 0v-9.91a3.83 3.83 0 0 0-7.66 0z" style="fill:url(#SVGID_00000136396756092762145300000015198856307771191460_)"/><radialGradient id="SVGID_00000075882998992863650770000013914025527299754639_" cx="44.5277" cy="78.5623" r="11.4018" gradientUnits="userSpaceOnUse"><stop offset="0" style="stop-color:#54f5ff"/><stop offset="0.1183" style="stop-color:#28cbe9"/><stop offset="1" style="stop-color:#0a4fbb"/></radialGradient><path d="M55.14 74.44c0 4.36-3.53 7.89-7.89 7.89s-7.89-3.53-7.89-7.89 3.53-7.89 7.89-7.89c4.36-.01 7.89 3.53 7.89 7.89" style="fill:url(#SVGID_00000075882998992863650770000013914025527299754639_)"/><path d="M59.81 21.77c0 .42-.34.77-.77.77h-3.59a.77.77 0 0 1 0-1.54h3.59c.43 0 .77.34.77.77m0 11.19c0 .42-.34.77-.77.77h-3.59a.77.77 0 0 1 0-1.54h3.59c.43.01.77.35.77.77m0 11.2c0 .42-.34.77-.77.77h-3.59a.77.77 0 0 1 0-1.54h3.59c.43 0 .77.34.77.77m0 11.19c0 .42-.34.77-.77.77h-3.59a.77.77 0 0 1 0-1.54h3.59c.43 0 .77.35.77.77m0 11.19c0 .42-.34.77-.77.77h-3.59a.77.77 0 0 1 0-1.54h3.59c.43.01.77.35.77.77" class="st184"/></g></svg>