<svg xmlns="http://www.w3.org/2000/svg" xml:space="preserve" x="0px" y="0px" viewBox="0 0 121 94"><style>.st184{fill:#a3aad2}</style><g id="OBJECTS"><linearGradient id="SVGID_1_" x1="92.2352" x2="53.6209" y1="46.4145" y2="89.5648" gradientUnits="userSpaceOnUse"><stop offset="0" style="stop-color:#ffba24"/><stop offset="1" style="stop-color:#f50"/></linearGradient><path d="m89.39 82.49-4.81.32-.91 4.73-4.63-1.34-2.47 4.14-3.89-2.85-3.74 3.04-2.68-4.01-4.56 1.59-1.14-4.69-4.83-.07.53-4.79-4.51-1.72 2.13-4.33-3.65-3.15 3.49-3.34-2.35-4.21 4.41-1.94-.77-4.76 4.82-.32.9-4.74 4.63 1.35 2.48-4.14 3.89 2.85 3.74-3.04 2.68 4.01 4.55-1.59 1.15 4.69 4.82.07-.52 4.79 4.51 1.72-2.14 4.32 3.65 3.16-3.48 3.34 2.35 4.21-4.42 1.94z" style="fill:url(#SVGID_1_)"/><radialGradient id="SVGID_00000078002941031218005820000001903320883730726826_" cx="138.8501" cy="58.5972" r="30.891" gradientTransform="matrix(-1 0 0 1 214.775 0)" gradientUnits="userSpaceOnUse"><stop offset="0" style="stop-color:#fff4c3"/><stop offset="0.1559" style="stop-color:#ffe036"/><stop offset="1" style="stop-color:#fa761c"/></radialGradient><path d="M55.93 68.8c0 8.99 7.29 16.27 16.27 16.27 8.99 0 16.27-7.29 16.27-16.27 0-8.99-7.29-16.27-16.27-16.27S55.93 59.81 55.93 68.8" style="fill:url(#SVGID_00000078002941031218005820000001903320883730726826_)"/><radialGradient id="SVGID_00000081645023174812950960000009226432618759966108_" cx="1339.4956" cy="-1901.3961" r="4.6369" gradientTransform="matrix(-.8392 1.1536 -1.6186 -1.3126 -1874.921 -3979.24)" gradientUnits="userSpaceOnUse"><stop offset="0" style="stop-color:#fff"/><stop offset="1" style="stop-color:#fff;stop-opacity:0"/></radialGradient><path d="M74.68 67.12c-4.14-3.36-5.76-8.48-3.61-11.44 2.15-2.95 7.25-2.62 11.4.74 4.14 3.36 5.76 8.48 3.61 11.43-2.15 2.97-7.25 2.64-11.4-.73" style="fill:url(#SVGID_00000081645023174812950960000009226432618759966108_)"/><radialGradient id="SVGID_00000175298029596343491750000018104457405953905313_" cx="-2777.1506" cy="2677.428" r="4.4744" gradientTransform="matrix(-1.1717 -1.1007 .222 -.7283 -3785.313 -1029.518)" gradientUnits="userSpaceOnUse"><stop offset="0" style="stop-color:#fff"/><stop offset="1" style="stop-color:#fff;stop-opacity:0"/></radialGradient><path d="M57.82 72.4c.55-1.8 3.34-1.05 6.24 1.67s4.8 6.38 4.25 8.18-3.34 1.05-6.24-1.67c-2.89-2.72-4.8-6.39-4.25-8.18" style="opacity:.4;fill:url(#SVGID_00000175298029596343491750000018104457405953905313_)"/><linearGradient id="SVGID_00000049219199863198075300000015722638692955169169_" x1="26.8271" x2="65.9843" y1="47" y2="47" gradientUnits="userSpaceOnUse"><stop offset="0" style="stop-color:#dbe1ff"/><stop offset="1" style="stop-color:#cbd1e9"/></linearGradient><path d="M65.98 82.81c0 4.27-3.46 7.72-7.72 7.72H34.55c-4.26 0-7.72-3.46-7.72-7.72V11.19c0-4.27 3.46-7.72 7.72-7.72h23.71c4.26 0 7.72 3.46 7.72 7.72z" style="fill:url(#SVGID_00000049219199863198075300000015722638692955169169_)"/><path d="M42.58 71.47a3.83 3.83 0 0 0 7.66 0V18.29a3.83 3.83 0 0 0-7.66 0z" class="st184"/><linearGradient id="SVGID_00000042011901100325425270000003755766527590295985_" x1="46.4058" x2="46.4058" y1="30.189" y2="53.5935" gradientUnits="userSpaceOnUse"><stop offset="0" style="stop-color:#e93c28"/><stop offset="1" style="stop-color:#bb160a"/></linearGradient><path d="M42.58 71.47a3.83 3.83 0 0 0 7.66 0V33.19a3.83 3.83 0 0 0-7.66 0z" style="fill:url(#SVGID_00000042011901100325425270000003755766527590295985_)"/><radialGradient id="SVGID_00000152234324343960056770000004278554623099149978_" cx="44.2007" cy="79.0111" r="12.2759" gradientUnits="userSpaceOnUse"><stop offset="0" style="stop-color:#ff909a"/><stop offset="0.1989" style="stop-color:#e93c28"/><stop offset="1" style="stop-color:#bb160a"/></radialGradient><path d="M54.3 74.44c0 4.36-3.53 7.89-7.89 7.89s-7.89-3.53-7.89-7.89 3.53-7.89 7.89-7.89c4.35-.01 7.89 3.53 7.89 7.89" style="fill:url(#SVGID_00000152234324343960056770000004278554623099149978_)"/><path d="M58.97 21.77c0 .42-.34.77-.77.77h-3.59a.77.77 0 0 1 0-1.54h3.59c.42 0 .77.34.77.77m0 11.19c0 .42-.34.77-.77.77h-3.59a.77.77 0 0 1 0-1.54h3.59c.42.01.77.35.77.77m0 11.2c0 .42-.34.77-.77.77h-3.59a.77.77 0 0 1 0-1.54h3.59c.42 0 .77.34.77.77m0 11.19c0 .42-.34.77-.77.77h-3.59a.77.77 0 0 1 0-1.54h3.59c.42 0 .77.35.77.77m0 11.19c0 .42-.34.77-.77.77h-3.59a.77.77 0 0 1 0-1.54h3.59c.42.01.77.35.77.77" class="st184"/></g></svg>