<svg xmlns="http://www.w3.org/2000/svg" xml:space="preserve" x="0px" y="0px" viewBox="0 0 121 94"><linearGradient id="a" x1="41.5065" x2="53.0308" y1="93.0974" y2="56.8082" gradientUnits="userSpaceOnUse"><stop offset="0.1559" style="stop-color:#ffe036"/><stop offset="1" style="stop-color:#fa761c"/></linearGradient><path d="M54.8 70.69h-4.36l7.19-13.97a8.036 8.036 0 0 0-5.47-11.53c-4.34-.92-8.6 1.84-9.52 6.18l-4.81 22.58-.15.69a4.87 4.87 0 0 0 4.77 5.86h5.32L44.9 92.47a1.133 1.133 0 0 0 2.02.93l11.43-15.76c.52-.72.83-1.61.83-2.57 0-2.42-1.96-4.38-4.38-4.38" style="fill:url(#a)"/><linearGradient id="b" x1="66.1262" x2="77.6506" y1="93.0975" y2="56.808" gradientUnits="userSpaceOnUse"><stop offset="0.1559" style="stop-color:#ffe036"/><stop offset="1" style="stop-color:#fa761c"/></linearGradient><path d="M79.42 70.69h-4.36l7.19-13.97a8.036 8.036 0 0 0-5.47-11.53 8.036 8.036 0 0 0-9.53 6.18l-4.8 22.58-.15.69c-.07.32-.1.65-.1.99a4.87 4.87 0 0 0 4.87 4.87h5.32l-2.87 11.97c-.1.43.05.9.43 1.18.51.37 1.21.25 1.58-.25l11.43-15.76c.52-.72.84-1.61.84-2.57 0-2.42-1.96-4.38-4.38-4.38" style="fill:url(#b)"/><radialGradient id="c" cx="72.1146" cy="13.9131" r="70.2558" gradientTransform="matrix(-1 0 0 -.7305 144.23 24.076)" gradientUnits="userSpaceOnUse"><stop offset="0" style="stop-color:#b6ccd2"/><stop offset="0.198" style="stop-color:#97b6be"/><stop offset="1" style="stop-color:#5d87b4"/></radialGradient><path d="M87.44 25.28C86.48 11.24 74.79.14 60.5.14s-25.98 11.1-26.94 25.15c-10.64.53-19.11 9.32-19.11 20.1 0 11.12 9.01 20.12 20.12 20.12h51.86c11.11 0 20.12-9.01 20.12-20.12 0-10.79-8.46-19.58-19.11-20.11" style="fill:url(#c)"/><radialGradient id="d" cx="878.3578" cy="-1845.6395" r="8.4761" gradientTransform="matrix(-.8392 1.1536 -1.6186 -1.3126 -2180.729 -3417.854)" gradientUnits="userSpaceOnUse"><stop offset="0" style="stop-color:#fff"/><stop offset="1" style="stop-color:#fff;stop-opacity:0"/></radialGradient><path d="M62.39 27.78c-7.58-6.15-10.54-15.5-6.61-20.9s13.26-4.79 20.84 1.35c7.57 6.14 10.53 15.51 6.6 20.9-3.93 5.41-13.25 4.8-20.83-1.35" style="opacity:.6;fill:url(#d)"/><radialGradient id="e" cx="878.9395" cy="-1860.5631" r="6.6614" gradientTransform="matrix(-.8392 1.1536 -1.6186 -1.3126 -2180.729 -3417.854)" gradientUnits="userSpaceOnUse"><stop offset="0" style="stop-color:#fff"/><stop offset="1" style="stop-color:#fff;stop-opacity:0"/></radialGradient><path d="M87.58 45.95c-5.95-4.83-8.28-12.18-5.19-16.43 3.09-4.24 10.42-3.77 16.37 1.06s8.28 12.19 5.19 16.43c-3.08 4.25-10.41 3.77-16.37-1.06" style="opacity:.4;fill:url(#e)"/><radialGradient id="f" cx="25.38" cy="51.6619" r="4.871" gradientTransform="matrix(.901 -.4338 1.2628 2.6229 -62.725 -72.834)" gradientUnits="userSpaceOnUse"><stop offset="0" style="stop-color:#fff"/><stop offset="1" style="stop-color:#fff;stop-opacity:0"/></radialGradient><path d="M28.83 46.63c-4.39-6.86-9.5-10.15-11.41-7.37-1.9 2.78.11 10.59 4.5 17.44 4.4 6.85 9.5 10.15 11.41 7.37s-.1-10.59-4.5-17.44" style="opacity:.2;fill:url(#f)"/></svg>